<svg width="174" height="174" viewBox="0 0 174 174" fill="none" xmlns="http://www.w3.org/2000/svg">
<path d="M86.6 54C72.1 54 58 56 49.6 57.5V65.5C49.6 65.5 54.9 64.5 57.4 64.1C65.6 62.9 76 61.8 86.5 61.8C95.5 61.8 104.5 62.6 112 63.6V55.7C104.7 54.8 95.7 54 86.6 54ZM86.6 125.7C77.4 122 70.2 116.4 65.1 109.2C60.2 102.2 57.5 94 57.5 85.9V67.9C55 68.3 49.7 69.3 49.7 69.3V86C49.7 95.7 52.9 105.6 58.7 113.8C65.3 123.1 74.6 130 86.6 134.2C90.2 132.9 93.5 131.5 96.6 129.7C96.4 129.6 90.5 127.3 86.6 125.7ZM115.8 56.3V85.9C115.8 94 113.1 102.3 108.2 109.2C103.8 115.4 97.9 120.4 90.5 124C93.8 125.4 98.2 127 99.9 127.7C105.8 123.9 110.7 119.2 114.6 113.7C120.4 105.4 123.6 95.5 123.6 85.9V57.5C121.4 57.1 118.7 56.7 115.8 56.3Z" fill="#A181FA"/>
<path d="M83.8 8.4C83.8 6.8 85.1 5.5 86.7 5.5C88.3 5.5 89.6 6.8 89.6 8.4C89.6 10 88.3 11.3 86.7 11.3C85.1 11.3 83.8 10 83.8 8.4ZM93.8 4.4C95 4.5 96.1 3.6 96.2 2.4C96.3 1.2 95.4 0.0999986 94.2 -1.36625e-06C93 -0.100001 92 0.799999 91.9 2C91.8 3.2 92.6 4.3 93.8 4.4ZM77.1 2.4C77.2 3.6 78.3 4.5 79.5 4.4C80.7 4.3 81.6 3.2 81.5 2C81.4 0.799999 80.3 -0.100001 79.1 -1.36625e-06C77.9 0.0999986 77 1.2 77.1 2.4ZM65.3 6.9C66.5 6.6 67.2 5.4 66.8 4.2C66.5 3 65.3 2.3 64.1 2.7C63 3 62.3 4.2 62.6 5.3C62.9 6.4 64.1 7.2 65.3 6.9ZM51.7 11.8C52.8 11.3 53.3 10 52.8 8.9C52.3 7.8 51 7.3 49.9 7.8C48.8 8.3 48.3 9.6 48.8 10.7C49.3 11.8 50.6 12.3 51.7 11.8ZM39.3 19C40.3 18.3 40.5 16.9 39.8 16C39.1 15 37.7 14.8 36.8 15.5C35.8 16.2 35.6 17.6 36.3 18.5C36.9 19.4 38.3 19.7 39.3 19ZM28.2 28.2C29.1 27.3 29.1 26 28.2 25.1C27.3 24.2 26 24.2 25.1 25.1C24.2 26 24.2 27.3 25.1 28.2C26 29.1 27.4 29.1 28.2 28.2ZM15.4 36.8C14.7 37.8 14.9 39.2 15.9 39.8C16.9 40.5 18.3 40.3 18.9 39.3C19.5 38.3 19.4 36.9 18.4 36.3C17.5 35.5 16.1 35.8 15.4 36.8ZM7.80002 49.9C7.30002 51 7.80002 52.3 8.90002 52.8C10 53.3 11.3 52.8 11.8 51.7C12.3 50.6 11.8 49.3 10.7 48.8C9.60002 48.3 8.30002 48.8 7.80002 49.9ZM5.30002 62.6C4.20002 62.3 3.00002 63 2.60002 64.1C2.30002 65.3 3.00002 66.5 4.10002 66.8C5.30002 67.1 6.50002 66.4 6.80002 65.3C7.20002 64.1 6.50002 62.9 5.30002 62.6ZM2.15219e-05 79.1C-0.0999785 80.3 0.800021 81.4 2.00002 81.5C3.20002 81.6 4.30002 80.7 4.40002 79.5C4.50002 78.3 3.60002 77.2 2.40002 77.1C1.20002 77 0.100022 77.9 2.15219e-05 79.1ZM2.40002 96.2C3.60002 96.1 4.50002 95 4.40002 93.8C4.30002 92.6 3.20002 91.7 2.00002 91.8C0.800021 92 -0.0999785 93 2.15219e-05 94.2C0.100022 95.4 1.20002 96.3 2.40002 96.2ZM5.30002 110.7C6.50002 110.4 7.20002 109.2 6.80002 108C6.50002 106.8 5.30002 106.1 4.10002 106.5C2.90002 106.8 2.20002 108 2.60002 109.2C3.00002 110.3 4.20002 111 5.30002 110.7ZM8.90002 120.5C7.80002 121 7.30002 122.3 7.80002 123.4C8.30002 124.5 9.60002 125 10.7 124.5C11.8 124 12.3 122.7 11.8 121.6C11.3 120.5 10 120 8.90002 120.5ZM15.9 133.5C14.9 134.2 14.7 135.6 15.4 136.5C16.1 137.5 17.5 137.7 18.4 137C19.4 136.3 19.6 134.9 18.9 134C18.3 133 16.9 132.8 15.9 133.5ZM28.2 148.1C29.1 147.2 29.1 145.9 28.2 145C27.3 144.1 26 144.1 25.1 145C24.2 145.9 24.2 147.2 25.1 148.1C26 149 27.4 149 28.2 148.1ZM39.8 157.4C40.5 156.4 40.3 155 39.3 154.4C38.3 153.7 36.9 153.9 36.3 154.9C35.6 155.9 35.8 157.3 36.8 157.9C37.8 158.6 39.1 158.3 39.8 157.4ZM51.7 161.5C50.6 161 49.3 161.5 48.8 162.6C48.3 163.7 48.8 165 49.9 165.5C51 166 52.3 165.5 52.8 164.4C53.3 163.3 52.8 162 51.7 161.5ZM65.3 166.4C64.1 166.1 62.9 166.8 62.6 167.9C62.3 169.1 63 170.3 64.1 170.6C65.3 170.9 66.5 170.2 66.8 169.1C67.1 167.9 66.4 166.7 65.3 166.4ZM79.4 168.9C78.2 168.8 77.1 169.7 77 170.9C76.9 172.1 77.8 173.2 79 173.3C80.2 173.4 81.3 172.5 81.4 171.3C81.5 170.1 80.7 169 79.4 168.9ZM96.2 170.9C96.1 169.7 95 168.8 93.8 168.9C92.6 169 91.7 170.1 91.8 171.3C91.9 172.5 93 173.4 94.2 173.3C95.4 173.2 96.3 172.1 96.2 170.9ZM108 166.4C106.8 166.7 106.1 167.9 106.5 169.1C106.9 170.3 108 171 109.2 170.6C110.4 170.3 111.1 169.1 110.7 167.9C110.4 166.8 109.2 166.1 108 166.4ZM121.6 161.5C120.5 162 120 163.3 120.5 164.4C121 165.5 122.3 166 123.4 165.5C124.5 165 125 163.7 124.5 162.6C123.9 161.5 122.6 161 121.6 161.5ZM134 154.3C133 155 132.8 156.4 133.5 157.3C134.2 158.3 135.6 158.5 136.5 157.8C137.5 157.1 137.7 155.7 137 154.8C136.4 153.9 135 153.6 134 154.3ZM145.1 145.1C144.2 146 144.2 147.3 145.1 148.2C146 149.1 147.3 149.1 148.2 148.2C149.1 147.3 149.1 146 148.2 145.1C147.3 144.2 145.9 144.2 145.1 145.1ZM157.9 136.5C158.6 135.5 158.4 134.1 157.4 133.5C156.4 132.8 155 133 154.4 134C153.7 135 153.9 136.4 154.9 137C155.8 137.8 157.2 137.5 157.9 136.5ZM165.5 123.4C166 122.3 165.5 121 164.4 120.5C163.3 120 162 120.5 161.5 121.6C161 122.7 161.5 124 162.6 124.5C163.7 125 165 124.5 165.5 123.4ZM168 110.7C169.2 111 170.4 110.3 170.7 109.2C171 108 170.3 106.8 169.2 106.5C168 106.2 166.8 106.9 166.5 108C166.1 109.2 166.8 110.4 168 110.7ZM173.3 94.2C173.4 93 172.5 91.9 171.3 91.8C170.1 91.7 169 92.6 168.9 93.8C168.8 95 169.7 96.1 170.9 96.2C172.1 96.3 173.2 95.4 173.3 94.2ZM170.9 77.1C169.7 77.2 168.8 78.3 168.9 79.5C169 80.7 170.1 81.6 171.3 81.5C172.5 81.4 173.4 80.3 173.3 79.1C173.2 77.9 172.1 77 170.9 77.1ZM169.1 66.8C170.3 66.5 171 65.3 170.6 64.1C170.3 62.9 169.1 62.2 167.9 62.6C166.7 62.9 166 64.1 166.4 65.3C166.7 66.4 167.9 67.1 169.1 66.8ZM164.4 52.8C165.5 52.3 166 51 165.5 49.9C165 48.8 163.7 48.3 162.6 48.8C161.5 49.3 161 50.6 161.5 51.7C162 52.8 163.3 53.3 164.4 52.8ZM157.4 39.8C158.4 39.1 158.6 37.7 157.9 36.8C157.2 35.9 155.8 35.6 154.9 36.3C153.9 37 153.7 38.4 154.4 39.3C155 40.3 156.4 40.5 157.4 39.8ZM145.1 25.2C144.2 26.1 144.2 27.4 145.1 28.3C146 29.2 147.3 29.2 148.2 28.3C149.1 27.4 149.1 26.1 148.2 25.2C147.3 24.3 145.9 24.3 145.1 25.2ZM133.5 15.9C132.8 16.9 133 18.3 134 18.9C135 19.6 136.4 19.4 137 18.4C137.7 17.4 137.5 16 136.5 15.4C135.5 14.7 134.2 15 133.5 15.9ZM121.6 11.8C122.7 12.3 124 11.8 124.5 10.7C125 9.6 124.5 8.3 123.4 7.8C122.3 7.3 121 7.8 120.5 8.9C120 10 120.5 11.3 121.6 11.8ZM108 6.9C109.2 7.2 110.4 6.5 110.7 5.4C111 4.2 110.3 3 109.2 2.7C108 2.4 106.8 3.1 106.5 4.2C106.2 5.4 106.9 6.5 108 6.9ZM99.7 12.4C101.3 12.7 102.7 11.6 103 10.1C103.3 8.5 102.2 7.1 100.7 6.8C99.1 6.5 97.7 7.6 97.4 9.1C97.1 10.7 98.2 12.1 99.7 12.4ZM110.7 12.2C110.2 13.7 110.9 15.3 112.4 15.9C113.9 16.4 115.5 15.7 116.1 14.2C116.6 12.7 115.9 11.1 114.4 10.5C112.9 9.9 111.3 10.7 110.7 12.2ZM123.3 17.5C122.5 18.9 123 20.6 124.3 21.4C125.7 22.2 127.4 21.7 128.2 20.4C129 19 128.5 17.3 127.2 16.5C125.8 15.6 124.1 16.1 123.3 17.5ZM134.7 24.9C133.7 26.1 133.8 27.9 135.1 28.9C136.4 29.9 138.1 29.8 139.1 28.5C140.1 27.3 140 25.5 138.7 24.5C137.6 23.5 135.8 23.7 134.7 24.9ZM144.7 34.2C143.5 35.2 143.3 37 144.3 38.2C145.3 39.4 147.1 39.6 148.3 38.6C149.5 37.6 149.7 35.8 148.7 34.6C147.8 33.3 146 33.2 144.7 34.2ZM155.8 50C157.2 49.2 157.6 47.5 156.8 46.1C156 44.7 154.3 44.3 152.9 45.1C151.5 45.9 151.1 47.6 151.9 49C152.7 50.3 154.5 50.8 155.8 50ZM157.5 60.9C158 62.4 159.7 63.1 161.2 62.6C162.7 62.1 163.4 60.4 162.9 58.9C162.4 57.4 160.7 56.7 159.2 57.2C157.7 57.7 156.9 59.4 157.5 60.9ZM163.2 70.2C161.6 70.5 160.6 72 160.9 73.5C161.2 75.1 162.7 76.1 164.2 75.8C165.8 75.5 166.8 74 166.5 72.5C166.2 71 164.8 70 163.2 70.2ZM164.9 83.8C163.3 83.8 162 85.1 162 86.7C162 88.3 163.3 89.6 164.9 89.6C166.5 89.6 167.8 88.3 167.8 86.7C167.8 85.1 166.5 83.8 164.9 83.8ZM163.2 103C164.8 103.3 166.2 102.2 166.5 100.7C166.8 99.1 165.7 97.7 164.2 97.4C162.6 97.1 161.2 98.2 160.9 99.7C160.6 101.3 161.6 102.8 163.2 103ZM162.9 114.4C163.4 112.9 162.7 111.3 161.2 110.7C159.7 110.2 158.1 110.9 157.5 112.4C157 113.9 157.7 115.5 159.2 116.1C160.7 116.7 162.3 115.9 162.9 114.4ZM156.9 127.2C157.7 125.8 157.2 124.1 155.9 123.3C154.5 122.5 152.8 123 152 124.3C151.2 125.7 151.7 127.4 153 128.2C154.3 129 156.1 128.6 156.9 127.2ZM148.4 134.7C147.2 133.7 145.4 133.8 144.4 135.1C143.4 136.3 143.5 138.1 144.8 139.1C146 140.1 147.8 140 148.8 138.7C149.8 137.6 149.6 135.8 148.4 134.7ZM135.1 144.4C133.9 145.4 133.7 147.2 134.7 148.4C135.7 149.6 137.5 149.8 138.7 148.8C139.9 147.8 140.1 146 139.1 144.8C138.1 143.5 136.3 143.4 135.1 144.4ZM128.2 153C127.4 151.6 125.7 151.2 124.3 152C122.9 152.8 122.5 154.5 123.3 155.9C124.1 157.3 125.8 157.7 127.2 156.9C128.6 156.1 129 154.3 128.2 153ZM116.1 159.2C115.6 157.7 113.9 157 112.4 157.5C110.9 158 110.2 159.7 110.7 161.2C111.2 162.7 112.9 163.4 114.4 162.9C115.9 162.4 116.6 160.7 116.1 159.2ZM103 163.2C102.7 161.6 101.2 160.6 99.7 160.9C98.2 161.2 97.1 162.7 97.4 164.2C97.7 165.8 99.2 166.8 100.7 166.5C102.3 166.2 103.3 164.8 103 163.2ZM86.6 162C85 162 83.7 163.3 83.7 164.9C83.7 166.5 85 167.8 86.6 167.8C88.2 167.8 89.5 166.5 89.5 164.9C89.5 163.3 88.2 162 86.6 162ZM73.6 160.9C72 160.6 70.6 161.7 70.3 163.2C70 164.8 71.1 166.2 72.6 166.5C74.1 166.8 75.6 165.7 75.9 164.2C76.2 162.6 75.1 161.2 73.6 160.9ZM62.6 161.1C63.1 159.6 62.4 158 60.9 157.4C59.4 156.9 57.8 157.6 57.2 159.1C56.7 160.6 57.4 162.2 58.9 162.8C60.4 163.4 62 162.6 62.6 161.1ZM50 155.8C50.8 154.4 50.3 152.7 49 151.9C47.6 151.1 45.9 151.6 45.1 152.9C44.3 154.3 44.8 156 46.1 156.8C47.5 157.7 49.2 157.2 50 155.8ZM38.6 148.4C39.6 147.2 39.5 145.4 38.2 144.4C37 143.4 35.2 143.5 34.2 144.8C33.2 146 33.3 147.8 34.6 148.8C35.7 149.8 37.5 149.6 38.6 148.4ZM28.6 139.1C29.8 138.1 30 136.3 29 135.1C28 133.9 26.2 133.7 25 134.7C23.8 135.7 23.6 137.5 24.6 138.7C25.5 140 27.3 140.1 28.6 139.1ZM17.5 123.3C16.1 124.1 15.7 125.8 16.5 127.2C17.3 128.6 19 129 20.4 128.2C21.8 127.4 22.2 125.7 21.4 124.3C20.6 123 18.8 122.5 17.5 123.3ZM15.8 112.4C15.3 110.9 13.6 110.2 12.1 110.7C10.6 111.2 9.90002 112.9 10.4 114.4C10.9 115.9 12.6 116.6 14.1 116.1C15.6 115.6 16.4 113.9 15.8 112.4ZM10.1 103C11.7 102.7 12.7 101.2 12.4 99.7C12.1 98.2 10.6 97.1 9.10002 97.4C7.50002 97.7 6.50002 99.2 6.80002 100.7C7.10002 102.2 8.50002 103.3 10.1 103ZM5.60002 86.6C5.60002 88.2 6.90002 89.5 8.50002 89.5C10.1 89.5 11.4 88.2 11.4 86.6C11.4 85 10.1 83.7 8.50002 83.7C6.80002 83.8 5.60002 85.1 5.60002 86.6ZM10.1 70.2C8.50002 69.9 7.10002 71 6.80002 72.5C6.50002 74 7.60002 75.5 9.10002 75.8C10.7 76.1 12.1 75 12.4 73.5C12.7 72 11.7 70.5 10.1 70.2ZM10.4 58.9C9.90002 60.4 10.6 62 12.1 62.6C13.6 63.2 15.2 62.4 15.8 60.9C16.3 59.4 15.6 57.8 14.1 57.2C12.6 56.7 11 57.4 10.4 58.9ZM16.4 46.1C15.6 47.5 16.1 49.2 17.4 50C18.8 50.8 20.5 50.3 21.3 49C22.1 47.6 21.6 45.9 20.3 45.1C19 44.3 17.2 44.7 16.4 46.1ZM24.9 38.6C26.1 39.6 27.9 39.5 28.9 38.2C29.9 37 29.8 35.2 28.5 34.2C27.3 33.2 25.5 33.3 24.5 34.6C23.5 35.7 23.7 37.5 24.9 38.6ZM38.2 28.9C39.4 27.9 39.6 26.1 38.6 24.9C37.6 23.7 35.8 23.5 34.6 24.5C33.4 25.5 33.2 27.3 34.2 28.5C35.2 29.8 37 29.9 38.2 28.9ZM45.1 20.3C45.9 21.7 47.6 22.1 49 21.3C50.4 20.5 50.8 18.8 50 17.4C49.2 16 47.5 15.6 46.1 16.4C44.7 17.2 44.3 19 45.1 20.3ZM57.2 14.1C57.7 15.6 59.4 16.3 60.9 15.8C62.4 15.3 63.1 13.6 62.6 12.1C62.1 10.6 60.4 9.9 58.9 10.4C57.4 11 56.7 12.6 57.2 14.1ZM70.2 10.1C70.5 11.7 72 12.7 73.5 12.4C75.1 12.1 76.1 10.6 75.8 9.1C75.5 7.5 74 6.5 72.5 6.8C71 7.1 70 8.5 70.2 10.1ZM80.1 12.2C78.3 12.4 76.9 14 77.1 15.8C77.3 17.6 78.9 19 80.7 18.8C82.5 18.6 83.9 17 83.7 15.2C83.6 13.4 82 12.1 80.1 12.2ZM92.6 18.9C94.4 19.1 96.1 17.7 96.2 15.9C96.4 14.1 95 12.4 93.2 12.3C91.4 12.1 89.7 13.5 89.6 15.3C89.4 17.1 90.7 18.8 92.6 18.9ZM101.9 16.9C101.4 18.7 102.5 20.5 104.3 21C106.1 21.5 107.9 20.4 108.4 18.6C108.9 16.8 107.8 15 106 14.5C104.2 14 102.4 15.1 101.9 16.9ZM118.2 19C116.5 18.2 114.5 18.9 113.7 20.6C112.9 22.3 113.6 24.3 115.3 25.1C117 25.9 119 25.2 119.8 23.5C120.6 21.8 119.9 19.7 118.2 19ZM125.6 31C127.1 32.1 129.2 31.7 130.3 30.2C131.4 28.7 131 26.6 129.5 25.5C128 24.4 125.9 24.8 124.8 26.3C123.8 27.8 124.1 29.9 125.6 31ZM134.7 33.8C133.4 35.1 133.4 37.2 134.7 38.5C136 39.8 138.1 39.8 139.4 38.5C140.7 37.2 140.7 35.1 139.4 33.8C138.1 32.5 136 32.5 134.7 33.8ZM147 48.5C148.5 47.4 148.9 45.3 147.8 43.8C146.7 42.3 144.6 41.9 143.1 43C141.6 44.1 141.2 46.2 142.3 47.7C143.4 49.2 145.5 49.5 147 48.5ZM148.3 57.9C149.1 59.6 151.1 60.3 152.8 59.5C154.5 58.7 155.2 56.7 154.4 55C153.6 53.3 151.6 52.6 149.9 53.4C148.2 54.2 147.5 56.2 148.3 57.9ZM154.7 64.9C152.9 65.4 151.9 67.2 152.3 69C152.8 70.8 154.6 71.8 156.4 71.4C158.2 70.9 159.2 69.1 158.8 67.3C158.4 65.5 156.5 64.5 154.7 64.9ZM157.4 77.1C155.6 77.3 154.2 78.9 154.4 80.7C154.6 82.5 156.2 83.9 158 83.7C159.8 83.5 161.2 81.9 161 80.1C160.9 78.3 159.3 76.9 157.4 77.1ZM161.1 93.2C161.3 91.4 159.9 89.7 158.1 89.6C156.3 89.4 154.6 90.8 154.5 92.6C154.4 94.4 155.7 96.1 157.5 96.2C159.3 96.4 160.9 95 161.1 93.2ZM154.7 108.3C156.5 108.8 158.3 107.7 158.8 105.9C159.3 104.1 158.2 102.3 156.4 101.8C154.6 101.3 152.8 102.4 152.3 104.2C151.8 106 152.9 107.9 154.7 108.3ZM154.3 118.2C155.1 116.5 154.4 114.5 152.7 113.7C151 112.9 149 113.6 148.2 115.3C147.4 117 148.1 119 149.8 119.8C151.6 120.6 153.6 119.9 154.3 118.2ZM143.2 130.3C144.7 131.4 146.8 131 147.9 129.5C149 128 148.6 125.9 147.1 124.8C145.6 123.7 143.5 124.1 142.4 125.6C141.3 127.2 141.6 129.3 143.2 130.3ZM134.7 134.7C133.4 136 133.4 138.1 134.7 139.4C136 140.7 138.1 140.7 139.4 139.4C140.7 138.1 140.7 136 139.4 134.7C138.2 133.4 136 133.4 134.7 134.7ZM125.6 142.3C124.1 143.4 123.7 145.5 124.8 147C125.9 148.5 128 148.9 129.5 147.8C131 146.7 131.4 144.6 130.3 143.1C129.3 141.6 127.2 141.3 125.6 142.3ZM115.4 148.3C113.7 149.1 113 151.1 113.8 152.8C114.6 154.5 116.6 155.2 118.3 154.4C120 153.6 120.7 151.6 119.9 149.9C119.1 148.2 117.1 147.5 115.4 148.3ZM108.3 154.7C107.8 152.9 106 151.9 104.2 152.3C102.4 152.8 101.4 154.6 101.8 156.4C102.3 158.2 104.1 159.2 105.9 158.8C107.8 158.3 108.8 156.5 108.3 154.7ZM93.2 161.1C95 160.9 96.4 159.3 96.2 157.5C96 155.7 94.4 154.3 92.6 154.5C90.8 154.7 89.4 156.3 89.6 158.1C89.7 159.9 91.3 161.2 93.2 161.1ZM80.7 154.4C78.9 154.2 77.2 155.6 77.1 157.4C76.9 159.2 78.3 160.9 80.1 161C81.9 161.2 83.6 159.8 83.7 158C83.9 156.2 82.6 154.5 80.7 154.4ZM71.4 156.4C71.9 154.6 70.8 152.8 69 152.3C67.2 151.8 65.4 152.9 64.9 154.7C64.4 156.5 65.5 158.3 67.3 158.8C69.1 159.3 70.9 158.2 71.4 156.4ZM55.1 154.3C56.8 155.1 58.8 154.4 59.6 152.7C60.4 151 59.7 149 58 148.2C56.3 147.4 54.3 148.1 53.5 149.8C52.7 151.6 53.4 153.6 55.1 154.3ZM47.7 142.3C46.2 141.2 44.1 141.6 43 143.1C41.9 144.6 42.3 146.7 43.8 147.8C45.3 148.9 47.4 148.5 48.5 147C49.5 145.5 49.2 143.4 47.7 142.3ZM38.6 139.5C39.9 138.2 39.9 136.1 38.6 134.8C37.3 133.5 35.2 133.5 33.9 134.8C32.6 136.1 32.6 138.2 33.9 139.5C35.1 140.8 37.3 140.8 38.6 139.5ZM26.3 124.8C24.8 125.9 24.4 128 25.5 129.5C26.6 131 28.7 131.4 30.2 130.3C31.7 129.2 32.1 127.1 31 125.6C29.9 124.1 27.8 123.8 26.3 124.8ZM25 115.4C24.2 113.7 22.2 113 20.5 113.8C18.8 114.6 18.1 116.6 18.9 118.3C19.7 120 21.7 120.7 23.4 119.9C25.1 119.1 25.8 117.1 25 115.4ZM18.6 108.3C20.4 107.8 21.4 106 21 104.2C20.6 102.4 18.7 101.4 16.9 101.8C15.1 102.3 14.1 104.1 14.5 105.9C15 107.8 16.8 108.8 18.6 108.3ZM15.9 96.2C17.7 96 19.1 94.4 18.9 92.6C18.7 90.8 17.1 89.4 15.3 89.6C13.5 89.8 12.1 91.4 12.3 93.2C12.4 95 14 96.4 15.9 96.2ZM12.2 80.1C12 81.9 13.4 83.6 15.2 83.7C17 83.9 18.7 82.5 18.8 80.7C18.9 78.9 17.6 77.2 15.8 77.1C14 76.9 12.4 78.3 12.2 80.1ZM18.6 64.9C16.8 64.4 15 65.5 14.5 67.3C14 69.1 15.1 70.9 16.9 71.4C18.7 71.9 20.5 70.8 21 69C21.5 67.3 20.4 65.4 18.6 64.9ZM19 55.1C18.2 56.8 18.9 58.8 20.6 59.6C22.3 60.4 24.3 59.7 25.1 58C25.9 56.3 25.2 54.3 23.5 53.5C21.7 52.7 19.7 53.4 19 55.1ZM30.1 43C28.6 41.9 26.5 42.3 25.4 43.8C24.3 45.3 24.7 47.4 26.2 48.5C27.7 49.6 29.8 49.2 30.9 47.7C32 46.1 31.6 44 30.1 43ZM38.6 38.6C39.9 37.3 39.9 35.2 38.6 33.9C37.3 32.6 35.2 32.6 33.9 33.9C32.6 35.2 32.6 37.3 33.9 38.6C35.1 39.9 37.3 39.9 38.6 38.6ZM47.7 31C49.2 29.9 49.6 27.8 48.5 26.3C47.4 24.8 45.3 24.4 43.8 25.5C42.3 26.6 41.9 28.7 43 30.2C44 31.6 46.1 32 47.7 31ZM57.9 25C59.6 24.2 60.3 22.2 59.5 20.5C58.7 18.8 56.7 18.1 55 18.9C53.3 19.7 52.6 21.7 53.4 23.4C54.2 25.1 56.2 25.8 57.9 25ZM64.9 18.6C65.4 20.4 67.2 21.4 69 21C70.8 20.5 71.8 18.7 71.4 16.9C70.9 15.1 69.1 14.1 67.3 14.5C65.5 15 64.5 16.8 64.9 18.6ZM74.8 19.7C72.7 20.1 71.2 22.1 71.6 24.2C72 26.3 74 27.8 76.1 27.4C78.2 27 79.7 25 79.3 22.9C79 20.7 77 19.3 74.8 19.7ZM63.4 22.8C61.4 23.5 60.3 25.8 61.1 27.8C61.8 29.8 64.1 30.9 66.1 30.1C68.1 29.4 69.2 27.1 68.4 25.1C67.7 23.1 65.4 22 63.4 22.8ZM56.6 34.6C58.5 33.5 59.1 31.1 58 29.2C56.9 27.3 54.5 26.7 52.6 27.8C50.7 28.9 50.1 31.3 51.2 33.2C52.3 35 54.7 35.6 56.6 34.6ZM42.5 40.1C43.9 41.8 46.4 42 48 40.6C49.7 39.2 49.9 36.7 48.5 35.1C47.1 33.4 44.6 33.2 43 34.6C41.3 36 41.1 38.4 42.5 40.1ZM27.8 52.7C26.7 54.6 27.4 57 29.2 58.1C31.1 59.2 33.5 58.5 34.6 56.7C35.7 54.8 35 52.4 33.2 51.3C31.2 50.1 28.9 50.8 27.8 52.7ZM22.8 63.4C22.1 65.4 23.1 67.7 25.1 68.4C27.1 69.1 29.4 68.1 30.1 66.1C30.8 64.1 29.8 61.8 27.8 61.1C25.7 60.3 23.5 61.4 22.8 63.4ZM19.7 74.8C19.3 76.9 20.7 79 22.9 79.3C25 79.7 27.1 78.3 27.4 76.1C27.8 74 26.4 71.9 24.2 71.6C22 71.3 20.1 72.7 19.7 74.8ZM22.6 82.7C20.4 82.7 18.7 84.5 18.7 86.6C18.7 88.7 20.5 90.5 22.6 90.5C24.8 90.5 26.5 88.7 26.5 86.6C26.5 84.5 24.7 82.7 22.6 82.7ZM24.2 101.6C26.3 101.2 27.8 99.2 27.4 97.1C27 95 25 93.5 22.9 93.9C20.8 94.3 19.3 96.3 19.7 98.4C20.1 100.6 22.1 102 24.2 101.6ZM27.8 112.2C29.8 111.5 30.9 109.2 30.1 107.2C29.4 105.2 27.1 104.1 25.1 104.9C23.1 105.6 22 107.9 22.8 109.9C23.5 111.9 25.7 113 27.8 112.2ZM33.1 122.1C35 121 35.6 118.6 34.5 116.7C33.4 114.8 31 114.2 29.1 115.3C27.2 116.4 26.6 118.8 27.7 120.7C28.9 122.5 31.2 123.2 33.1 122.1ZM40.1 130.8C41.8 129.4 42 126.9 40.6 125.3C39.2 123.6 36.7 123.4 35.1 124.8C33.4 126.2 33.2 128.7 34.6 130.3C36 132 38.4 132.2 40.1 130.8ZM48 132.7C46.3 131.3 43.9 131.5 42.5 133.2C41.1 134.9 41.3 137.3 43 138.7C44.7 140.1 47.1 139.9 48.5 138.2C49.9 136.6 49.6 134.1 48 132.7ZM56.6 138.7C54.7 137.6 52.3 138.3 51.2 140.1C50.1 141.9 50.8 144.4 52.6 145.5C54.5 146.6 56.9 145.9 58 144.1C59.1 142.3 58.4 139.8 56.6 138.7ZM63.4 150.5C65.4 151.2 67.7 150.2 68.4 148.2C69.1 146.2 68.1 143.9 66.1 143.2C64.1 142.5 61.8 143.5 61.1 145.5C60.3 147.5 61.4 149.8 63.4 150.5ZM74.8 153.6C76.9 154 79 152.6 79.3 150.4C79.7 148.3 78.3 146.2 76.1 145.9C74 145.5 71.9 146.9 71.6 149.1C71.3 151.2 72.7 153.2 74.8 153.6ZM86.6 154.6C88.8 154.6 90.5 152.8 90.5 150.7C90.5 148.5 88.7 146.8 86.6 146.8C84.4 146.8 82.7 148.6 82.7 150.7C82.7 152.9 84.5 154.6 86.6 154.6ZM98.5 153.6C100.6 153.2 102.1 151.2 101.7 149.1C101.3 147 99.3 145.5 97.2 145.9C95.1 146.3 93.6 148.3 94 150.4C94.3 152.6 96.3 154 98.5 153.6ZM109.9 150.5C111.9 149.8 113 147.5 112.2 145.5C111.5 143.5 109.2 142.4 107.2 143.2C105.2 143.9 104.1 146.2 104.9 148.2C105.6 150.2 107.9 151.3 109.9 150.5ZM116.7 138.7C114.8 139.8 114.2 142.2 115.3 144.1C116.4 146 118.8 146.6 120.7 145.5C122.6 144.4 123.2 142 122.1 140.1C121 138.3 118.6 137.7 116.7 138.7ZM130.8 133.2C129.4 131.5 126.9 131.3 125.3 132.7C123.6 134.1 123.4 136.6 124.8 138.2C126.2 139.9 128.7 140.1 130.3 138.7C132 137.3 132.2 134.9 130.8 133.2ZM133.2 130.8C134.9 132.2 137.3 132 138.7 130.3C140.1 128.6 139.9 126.2 138.2 124.8C136.5 123.4 134.1 123.6 132.7 125.3C131.3 127 131.6 129.4 133.2 130.8ZM145.5 120.6C146.6 118.7 145.9 116.3 144.1 115.2C142.2 114.1 139.8 114.8 138.7 116.6C137.6 118.5 138.3 120.9 140.1 122C142 123.2 144.4 122.5 145.5 120.6ZM150.5 109.9C151.2 107.9 150.2 105.6 148.2 104.9C146.2 104.2 143.9 105.2 143.2 107.2C142.5 109.2 143.5 111.5 145.5 112.2C147.5 113 149.8 111.9 150.5 109.9ZM153.6 98.5C154 96.4 152.6 94.3 150.4 94C148.2 93.7 146.2 95 145.9 97.2C145.5 99.3 146.9 101.4 149.1 101.7C151.2 102 153.2 100.6 153.6 98.5ZM150.7 82.7C148.5 82.7 146.8 84.5 146.8 86.6C146.8 88.7 148.6 90.5 150.7 90.5C152.9 90.5 154.6 88.7 154.6 86.6C154.6 84.5 152.9 82.7 150.7 82.7ZM149.1 71.7C147 72.1 145.5 74.1 145.9 76.2C146.3 78.3 148.3 79.8 150.4 79.4C152.5 79 154 77 153.6 74.9C153.2 72.7 151.2 71.3 149.1 71.7ZM145.5 61.1C143.5 61.8 142.4 64.1 143.2 66.1C143.9 68.1 146.2 69.2 148.2 68.4C150.2 67.7 151.3 65.4 150.5 63.4C149.8 61.4 147.5 60.3 145.5 61.1ZM140.2 51.2C138.3 52.3 137.7 54.7 138.8 56.6C139.9 58.5 142.3 59.1 144.2 58C146.1 56.9 146.7 54.5 145.6 52.6C144.4 50.8 142 50.1 140.2 51.2ZM135.9 41.4C133.7 41.4 131.9 43.2 131.9 45.4C131.9 47.6 133.7 49.4 135.9 49.4C138.1 49.4 139.9 47.6 139.9 45.4C139.9 43.2 138.1 41.4 135.9 41.4ZM125.3 40.6C127 42 129.4 41.8 130.8 40.1C132.2 38.4 132 36 130.3 34.6C128.6 33.2 126.2 33.4 124.8 35.1C123.4 36.7 123.7 39.2 125.3 40.6ZM116.7 34.6C118.6 35.7 121 35 122.1 33.2C123.2 31.3 122.5 28.9 120.7 27.8C118.8 26.7 116.4 27.4 115.3 29.2C114.2 31.1 114.8 33.5 116.7 34.6ZM109.9 22.8C107.9 22.1 105.6 23.1 104.9 25.1C104.2 27.1 105.2 29.4 107.2 30.1C109.2 30.8 111.5 29.8 112.2 27.8C112.9 25.8 111.9 23.5 109.9 22.8ZM98.5 19.7C96.4 19.3 94.3 20.7 94 22.9C93.6 25 95 27.1 97.2 27.4C99.3 27.8 101.4 26.4 101.7 24.2C102 22.1 100.6 20.1 98.5 19.7ZM81.4 27C79.2 27.2 77.5 29.2 77.7 31.4C77.9 33.6 79.9 35.3 82.1 35.1C84.3 34.9 86 32.9 85.8 30.7C85.6 28.4 83.7 26.8 81.4 27ZM68.3 33.8C68.9 36 71.1 37.2 73.3 36.7C75.5 36.1 76.7 33.9 76.2 31.7C75.6 29.5 73.4 28.3 71.2 28.8C69 29.4 67.7 31.6 68.3 33.8ZM59.4 37.7C60.3 39.7 62.8 40.6 64.8 39.7C66.8 38.8 67.7 36.3 66.8 34.3C65.9 32.3 63.4 31.4 61.4 32.3C59.3 33.3 58.4 35.7 59.4 37.7ZM36.6 73.2C37.2 71 35.9 68.8 33.7 68.2C31.5 67.6 29.3 68.9 28.7 71.1C28.1 73.3 29.4 75.5 31.6 76.1C33.8 76.7 36 75.4 36.6 73.2ZM31.4 77.7C29.2 77.5 27.2 79.2 27 81.4C26.8 83.6 28.5 85.6 30.7 85.8C32.9 86 34.9 84.3 35.1 82.1C35.2 79.9 33.6 77.9 31.4 77.7ZM31.4 95.6C33.6 95.4 35.3 93.4 35.1 91.2C34.9 89 32.9 87.3 30.7 87.5C28.5 87.7 26.8 89.7 27 91.9C27.2 94.1 29.1 95.7 31.4 95.6ZM31.7 97.2C29.5 97.8 28.3 100 28.8 102.2C29.4 104.4 31.6 105.6 33.8 105.1C36 104.5 37.2 102.3 36.7 100.1C36 97.9 33.8 96.6 31.7 97.2ZM32.4 112C33.3 114 35.8 114.9 37.8 114C39.8 113.1 40.7 110.6 39.8 108.6C38.9 106.6 36.4 105.7 34.4 106.6C32.3 107.5 31.4 109.9 32.4 112ZM44.2 116.4C42.9 114.6 40.4 114.1 38.6 115.4C36.8 116.7 36.3 119.2 37.6 121C38.9 122.8 41.4 123.3 43.2 122C45.1 120.7 45.5 118.2 44.2 116.4ZM50 123.3C48.4 121.7 45.9 121.7 44.3 123.3C42.7 124.9 42.7 127.4 44.3 129C45.9 130.6 48.4 130.6 50 129C51.6 127.4 51.6 124.9 50 123.3ZM129 129C130.6 127.4 130.6 124.9 129 123.3C127.4 121.7 124.9 121.7 123.3 123.3C121.7 124.9 121.7 127.4 123.3 129C124.9 130.6 127.4 130.6 129 129ZM135.7 121C137 119.2 136.5 116.6 134.7 115.4C132.9 114.1 130.3 114.6 129.1 116.4C127.8 118.2 128.3 120.8 130.1 122C131.9 123.3 134.4 122.8 135.7 121ZM139 106.6C137 105.7 134.6 106.5 133.6 108.6C132.7 110.6 133.5 113 135.6 114C137.6 114.9 140 114.1 141 112C141.9 109.9 141 107.5 139 106.6ZM144.5 102.2C145.1 100 143.8 97.8 141.6 97.2C139.4 96.6 137.2 97.9 136.6 100.1C136 102.3 137.3 104.5 139.5 105.1C141.7 105.6 143.9 104.3 144.5 102.2ZM146.3 91.9C146.5 89.7 144.8 87.7 142.6 87.5C140.4 87.3 138.4 89 138.2 91.2C138 93.4 139.7 95.4 141.9 95.6C144.2 95.7 146.1 94.1 146.3 91.9ZM146.3 81.4C146.1 79.2 144.1 77.5 141.9 77.7C139.7 77.9 138 79.9 138.2 82.1C138.4 84.3 140.4 86 142.6 85.8C144.9 85.6 146.5 83.7 146.3 81.4ZM141.6 76.1C143.8 75.5 145 73.3 144.5 71.1C143.9 68.9 141.7 67.7 139.5 68.2C137.3 68.8 136.1 71 136.6 73.2C137.3 75.4 139.5 76.7 141.6 76.1ZM106.6 34.3C105.7 36.3 106.5 38.7 108.6 39.7C110.6 40.6 113 39.8 114 37.7C114.9 35.7 114.1 33.3 112 32.3C109.9 31.4 107.5 32.3 106.6 34.3ZM102.2 28.8C100 28.2 97.8 29.5 97.2 31.7C96.6 33.9 97.9 36.1 100.1 36.7C102.3 37.3 104.5 36 105.1 33.8C105.6 31.6 104.3 29.4 102.2 28.8ZM87.5 30.7C87.3 32.9 89 34.9 91.2 35.1C93.4 35.3 95.4 33.6 95.6 31.4C95.8 29.2 94.1 27.2 91.9 27C89.6 26.8 87.7 28.4 87.5 30.7ZM86.6 18.7C84.4 18.7 82.7 20.5 82.7 22.6C82.7 24.7 84.5 26.5 86.6 26.5C88.8 26.5 90.5 24.7 90.5 22.6C90.5 20.5 88.8 18.7 86.6 18.7ZM118.7 36.8C116.5 36.8 114.7 38.6 114.7 40.8C114.7 43 116.5 44.8 118.7 44.8C120.9 44.8 122.7 43 122.7 40.8C122.7 38.6 120.9 36.8 118.7 36.8ZM126.5 43.3C124.8 43.3 123.5 44.7 123.5 46.3C123.5 47.9 124.9 49.3 126.5 49.3C128.2 49.3 129.5 47.9 129.5 46.3C129.5 44.7 128.1 43.3 126.5 43.3ZM46.8 43.3C45.1 43.3 43.8 44.7 43.8 46.3C43.8 47.9 45.2 49.3 46.8 49.3C48.4 49.3 49.8 47.9 49.8 46.3C49.8 44.7 48.5 43.3 46.8 43.3ZM40.1 50.8C38.4 50.8 37.1 52.2 37.1 53.8C37.1 55.4 38.5 56.8 40.1 56.8C41.7 56.8 43.1 55.4 43.1 53.8C43.1 52.2 41.8 50.8 40.1 50.8ZM133.2 50.8C131.5 50.8 130.2 52.2 130.2 53.8C130.2 55.4 131.6 56.8 133.2 56.8C134.9 56.8 136.2 55.4 136.2 53.8C136.2 52.2 134.9 50.8 133.2 50.8ZM137.5 59.1C135.3 59.1 133.5 60.9 133.5 63.1C133.5 65.3 135.3 67.1 137.5 67.1C139.7 67.1 141.5 65.3 141.5 63.1C141.5 60.9 139.7 59.1 137.5 59.1ZM118.7 128.4C116.5 128.4 114.7 130.2 114.7 132.4C114.7 134.6 116.5 136.4 118.7 136.4C120.9 136.4 122.7 134.6 122.7 132.4C122.7 130.2 120.9 128.4 118.7 128.4ZM54.6 128.4C52.4 128.4 50.6 130.2 50.6 132.4C50.6 134.6 52.4 136.4 54.6 136.4C56.8 136.4 58.6 134.6 58.6 132.4C58.6 130.2 56.8 128.4 54.6 128.4ZM62.4 134.7C60.6 134.7 59.1 136.2 59.1 138C59.1 139.8 60.6 141.3 62.4 141.3C64.2 141.3 65.7 139.8 65.7 138C65.7 136.2 64.3 134.7 62.4 134.7ZM71.5 140.5C70.2 140.5 69.1 141.6 69.1 142.9C69.1 144.2 70.2 145.3 71.5 145.3C72.8 145.3 73.9 144.2 73.9 142.9C73.9 141.6 72.9 140.5 71.5 140.5ZM101.7 140.5C100.4 140.5 99.3 141.6 99.3 142.9C99.3 144.2 100.4 145.3 101.7 145.3C103 145.3 104.1 144.2 104.1 142.9C104.1 141.6 103 140.5 101.7 140.5ZM110.5 134.7C108.7 134.7 107.2 136.2 107.2 138C107.2 139.8 108.7 141.3 110.5 141.3C112.3 141.3 113.8 139.8 113.8 138C113.8 136.2 112.4 134.7 110.5 134.7ZM37.6 41.4C35.4 41.4 33.6 43.2 33.6 45.4C33.6 47.6 35.4 49.4 37.6 49.4C39.8 49.4 41.6 47.6 41.6 45.4C41.5 43.2 39.8 41.4 37.6 41.4ZM54.6 36.8C52.4 36.8 50.6 38.6 50.6 40.8C50.6 43 52.4 44.8 54.6 44.8C56.8 44.8 58.6 43 58.6 40.8C58.6 38.6 56.8 36.8 54.6 36.8ZM35.8 59.1C33.6 59.1 31.8 60.9 31.8 63.1C31.8 65.3 33.6 67.1 35.8 67.1C38 67.1 39.8 65.3 39.8 63.1C39.8 60.9 38 59.1 35.8 59.1Z" fill="url(#paint0_radial_685_367)"/>
<defs>
<radialGradient id="paint0_radial_685_367" cx="0" cy="0" r="1" gradientUnits="userSpaceOnUse" gradientTransform="translate(86.1059 87.1144) scale(89.8136)">
<stop stop-color="#E2D8ED"/>
<stop offset="0.2073" stop-color="#DFD5ED"/>
<stop offset="0.3762" stop-color="#D7CBEB"/>
<stop offset="0.5315" stop-color="#C9BAE9"/>
<stop offset="0.6787" stop-color="#B6A2E6"/>
<stop offset="0.8202" stop-color="#9D83E2"/>
<stop offset="0.9555" stop-color="#7E5DDD"/>
<stop offset="1" stop-color="#734FDB"/>
</radialGradient>
</defs>
</svg>
