<svg width="427" height="457" viewBox="0 0 427 457" fill="none" xmlns="http://www.w3.org/2000/svg">
<path d="M17.7 401.908V392.008H41.2C48.4 392.008 52.6 387.508 52.6 380.908C52.6 374.108 48.3 369.908 41.2 369.908H10.2V418.208H0.0999756V359.608H41.2C54.7 359.608 62.6 367.708 62.6 380.508C62.6 393.108 54.7 401.808 41.2 401.808H17.7V401.908Z" fill="#574793"/>
<path d="M119.3 418.108L110.5 403.408H82.9L87.7 395.108H105.6L92.6 373.208L66 418.108H54.3L87.9 362.108C89.1 360.108 90.6 358.808 92.9 358.808C95.2 358.808 96.6 360.108 97.8 362.108L131.5 418.108H119.3Z" fill="#574793"/>
<path d="M137.9 418.108V359.608H148.1V407.908H187.4V418.108H137.9Z" fill="#574793"/>
<path d="M255.8 418.108L247 403.408H219.3L224.1 395.108H242L229 373.208L202.4 418.108H190.9L224.5 362.108C225.7 360.108 227.2 358.808 229.5 358.808C231.8 358.808 233.2 360.108 234.4 362.108L268.1 418.108H255.8Z" fill="#574793"/>
<path d="M274.4 418.108V359.608H308.3C324.8 359.608 336.8 371.308 336.8 388.208C336.8 405.108 324.8 418.108 308.3 418.108H274.4ZM308.2 407.908C318.7 407.908 326.5 399.808 326.5 388.808C326.5 377.808 318.8 369.908 308.2 369.908H284.5V408.008H308.2V407.908Z" fill="#574793"/>
<path d="M345.6 418.108V359.608H355.9V418.108H345.6Z" fill="#574793"/>
<path d="M376.1 375.308V418.108H366.4V365.008C366.4 361.208 368.4 358.908 371.6 358.908C373.1 358.908 374.4 359.508 375.9 361.008L417.2 402.008V359.108H426.9V412.708C426.9 416.608 424.8 418.808 421.8 418.808C420.1 418.808 418.6 418.108 417.1 416.608L376.1 375.308Z" fill="#574793"/>
<path d="M0 455.908V452.908H2.59999V439.208H0V436.208H10C11.2 436.208 12.2 436.408 13.1 436.808C14 437.208 14.7 437.808 15.2 438.508C15.7 439.208 15.9 440.108 15.9 441.108V441.408C15.9 442.308 15.7 443.008 15.4 443.608C15.1 444.208 14.7 444.608 14.2 444.908C13.7 445.208 13.3 445.408 12.9 445.608V446.108C13.3 446.208 13.8 446.408 14.3 446.708C14.8 447.008 15.2 447.508 15.6 448.008C15.9 448.608 16.1 449.408 16.1 450.308V450.608C16.1 451.708 15.8 452.608 15.3 453.408C14.8 454.208 14.1 454.808 13.2 455.208C12.3 455.608 11.3 455.808 10.1 455.808H0V455.908ZM6 444.508H9.7C10.6 444.508 11.3 444.308 11.8 443.908C12.3 443.508 12.6 442.908 12.6 442.108V441.808C12.6 441.008 12.3 440.408 11.8 440.008C11.3 439.608 10.6 439.408 9.7 439.408H6V444.508ZM6 452.908H9.7C10.6 452.908 11.3 452.708 11.8 452.208C12.3 451.808 12.6 451.108 12.6 450.308V450.008C12.6 449.208 12.3 448.608 11.8 448.108C11.3 447.708 10.6 447.408 9.59999 447.408H5.89999V452.908H6Z" fill="#8C6EDF"/>
<path d="M26.3 455.908V436.308H29.7V452.908H38.9V456.008H26.3V455.908Z" fill="#8C6EDF"/>
<path d="M55.4 456.308C53 456.308 51 455.608 49.6 454.308C48.2 452.908 47.4 451.008 47.4 448.508V443.808C47.4 441.308 48.1 439.308 49.6 438.008C51 436.608 53 436.008 55.4 436.008C57.8 436.008 59.8 436.708 61.2 438.008C62.6 439.408 63.4 441.308 63.4 443.808V448.508C63.4 451.008 62.7 453.008 61.2 454.308C59.8 455.708 57.8 456.308 55.4 456.308ZM55.4 453.308C56.9 453.308 58 452.908 58.8 452.008C59.6 451.108 60 450.008 60 448.508V443.608C60 442.108 59.6 441.008 58.8 440.108C58 439.208 56.9 438.808 55.4 438.808C54 438.808 52.8 439.208 52 440.108C51.2 441.008 50.8 442.108 50.8 443.608V448.508C50.8 450.008 51.2 451.108 52 452.008C52.8 452.908 53.9 453.308 55.4 453.308Z" fill="#8C6EDF"/>
<path d="M81.1001 456.308C78.7001 456.308 76.8001 455.608 75.4001 454.308C74.0001 452.908 73.3 451.008 73.3 448.508V443.808C73.3 441.308 74.0001 439.308 75.4001 438.008C76.8001 436.608 78.7001 436.008 81.1001 436.008C83.5001 436.008 85.3001 436.708 86.6001 438.008C87.9001 439.308 88.5001 441.108 88.5001 443.408V443.608H85.2V443.308C85.2 442.108 84.9 441.108 84.2 440.308C83.5 439.508 82.5001 439.108 81.0001 439.108C79.6001 439.108 78.5 439.508 77.7 440.408C76.9 441.308 76.5001 442.408 76.5001 443.908V448.708C76.5001 450.208 76.9 451.308 77.7 452.208C78.5 453.108 79.6001 453.508 81.0001 453.508C82.4001 453.508 83.5 453.108 84.2 452.308C84.9 451.508 85.2 450.508 85.2 449.308V448.808H88.5001V449.208C88.5001 451.508 87.9001 453.308 86.6001 454.608C85.4001 455.708 83.5001 456.308 81.1001 456.308Z" fill="#8C6EDF"/>
<path d="M98.8 455.908V436.308H102.2V444.308H102.7L109.5 436.308H113.8L105.3 446.008L114.1 456.008H109.6L102.6 447.808H102.1V456.008H98.8V455.908Z" fill="#8C6EDF"/>
<path d="M129.8 456.308C127.4 456.308 125.5 455.608 124.1 454.308C122.7 452.908 122 451.008 122 448.508V443.808C122 441.308 122.7 439.308 124.1 438.008C125.5 436.608 127.4 436.008 129.8 436.008C132.2 436.008 134 436.708 135.3 438.008C136.6 439.308 137.2 441.108 137.2 443.408V443.608H133.9V443.308C133.9 442.108 133.6 441.108 132.9 440.308C132.2 439.508 131.2 439.108 129.7 439.108C128.3 439.108 127.2 439.508 126.4 440.408C125.6 441.308 125.2 442.408 125.2 443.908V448.708C125.2 450.208 125.6 451.308 126.4 452.208C127.2 453.108 128.3 453.508 129.7 453.508C131.1 453.508 132.2 453.108 132.9 452.308C133.6 451.508 133.9 450.508 133.9 449.308V448.808H137.2V449.208C137.2 451.508 136.6 453.308 135.3 454.608C134 455.708 132.2 456.308 129.8 456.308Z" fill="#8C6EDF"/>
<path d="M147.4 455.908V436.308H150.8V444.508H158.5V436.308H161.9V455.908H158.5V447.608H150.8V455.908H147.4Z" fill="#8C6EDF"/>
<path d="M171.5 455.908L176.9 436.308H182.8L188.2 455.908H184.7L183.5 451.408H176.2L175 455.908H171.5ZM176.9 448.408H182.6L180 438.408H179.5L176.9 448.408Z" fill="#8C6EDF"/>
<path d="M197.6 455.908V436.308H201V455.908H197.6Z" fill="#8C6EDF"/>
<path d="M211.9 455.908V436.308H218.3L222.9 453.708H223.4V436.308H226.7V455.908H220.3L215.7 438.508H215.2V455.908H211.9Z" fill="#8C6EDF"/>
<path d="M258.5 456.308C257 456.308 255.7 456.008 254.5 455.508C253.4 455.008 252.5 454.208 251.8 453.208C251.1 452.208 250.8 451.008 250.8 449.508V448.808H254.1V449.508C254.1 450.808 254.5 451.808 255.3 452.408C256.1 453.008 257.1 453.408 258.4 453.408C259.7 453.408 260.7 453.108 261.4 452.608C262.1 452.108 262.4 451.408 262.4 450.508C262.4 449.908 262.2 449.408 261.9 449.108C261.6 448.708 261.1 448.408 260.5 448.208C259.9 448.008 259.2 447.808 258.3 447.608L257.5 447.408C256.2 447.108 255.1 446.708 254.2 446.308C253.3 445.808 252.5 445.208 252 444.508C251.5 443.808 251.2 442.808 251.2 441.608C251.2 440.408 251.5 439.408 252 438.608C252.6 437.808 253.4 437.108 254.4 436.708C255.4 436.308 256.6 436.008 258 436.008C259.4 436.008 260.6 436.208 261.7 436.708C262.8 437.208 263.6 437.908 264.3 438.808C264.9 439.708 265.2 440.908 265.2 442.308V443.208H261.9V442.308C261.9 441.508 261.7 440.908 261.4 440.408C261.1 439.908 260.6 439.608 260.1 439.308C259.5 439.108 258.8 439.008 258.1 439.008C256.9 439.008 256.1 439.208 255.5 439.708C254.9 440.108 254.6 440.808 254.6 441.608C254.6 442.108 254.7 442.608 255 442.908C255.3 443.208 255.7 443.608 256.2 443.808C256.7 444.008 257.4 444.208 258.2 444.408L259 444.608C260.3 444.908 261.5 445.308 262.5 445.708C263.5 446.108 264.3 446.808 264.9 447.508C265.5 448.208 265.8 449.208 265.8 450.408C265.8 451.608 265.5 452.608 264.9 453.508C264.3 454.408 263.4 455.108 262.3 455.608C261.3 456.108 260 456.308 258.5 456.308Z" fill="#8C6EDF"/>
<path d="M275.8 455.908V436.308H288.3V439.408H279.2V444.608H287.5V447.708H279.2V453.008H288.5V456.108H275.8V455.908Z" fill="#8C6EDF"/>
<path d="M305.8 456.308C303.4 456.308 301.5 455.608 300.1 454.308C298.7 452.908 298 451.008 298 448.508V443.808C298 441.308 298.7 439.308 300.1 438.008C301.5 436.608 303.4 436.008 305.8 436.008C308.2 436.008 310 436.708 311.3 438.008C312.6 439.308 313.2 441.108 313.2 443.408V443.608H309.9V443.308C309.9 442.108 309.6 441.108 308.9 440.308C308.2 439.508 307.2 439.108 305.7 439.108C304.3 439.108 303.2 439.508 302.4 440.408C301.6 441.308 301.2 442.408 301.2 443.908V448.708C301.2 450.208 301.6 451.308 302.4 452.208C303.2 453.108 304.3 453.508 305.7 453.508C307.1 453.508 308.2 453.108 308.9 452.308C309.6 451.508 309.9 450.508 309.9 449.308V448.808H313.2V449.208C313.2 451.508 312.6 453.308 311.3 454.608C310 455.708 308.2 456.308 305.8 456.308Z" fill="#8C6EDF"/>
<path d="M330.9 456.308C329.3 456.308 328 456.008 326.9 455.408C325.8 454.808 324.9 454.008 324.3 452.908C323.7 451.808 323.4 450.508 323.4 449.008V436.208H326.8V449.108C326.8 450.408 327.2 451.408 327.9 452.108C328.6 452.808 329.7 453.208 331 453.208C332.4 453.208 333.4 452.808 334.1 452.108C334.8 451.408 335.2 450.408 335.2 449.108V436.208H338.6V449.008C338.6 450.508 338.3 451.808 337.7 452.908C337.1 454.008 336.2 454.808 335.1 455.408C333.8 456.008 332.4 456.308 330.9 456.308Z" fill="#8C6EDF"/>
<path d="M349.2 455.908V436.308H357.6C358.8 436.308 359.9 436.508 360.8 436.908C361.7 437.308 362.4 437.908 362.9 438.708C363.4 439.508 363.7 440.408 363.7 441.508V441.808C363.7 443.008 363.4 444.008 362.8 444.708C362.2 445.408 361.5 446.008 360.7 446.308V446.708C361.4 446.708 362 447.008 362.4 447.508C362.8 448.008 363 448.608 363 449.408V455.908H359.6V449.908C359.6 449.408 359.5 449.108 359.2 448.808C358.9 448.508 358.5 448.408 358 448.408H352.4V456.008H349.2V455.908ZM352.6 445.308H357.3C358.3 445.308 359 445.008 359.6 444.508C360.2 444.008 360.4 443.308 360.4 442.408V442.108C360.4 441.208 360.1 440.508 359.6 440.008C359.1 439.508 358.3 439.208 357.3 439.208H352.6V445.308Z" fill="#8C6EDF"/>
<path d="M374 455.908V436.308H377.4V455.908H374Z" fill="#8C6EDF"/>
<path d="M392.9 455.908V439.308H387V436.208H402.1V439.308H396.2V455.908H392.9Z" fill="#8C6EDF"/>
<path d="M416.8 455.908V449.008L410 436.308H413.8L418.2 445.008H418.7L423.1 436.308H426.9L420.1 449.008V455.908H416.8Z" fill="#8C6EDF"/>
<path d="M213.567 97.6336C187.355 97.6336 161.865 101.249 146.68 103.961V118.423C146.68 118.423 156.261 116.615 160.78 115.892C175.604 113.723 194.405 111.734 213.387 111.734C229.657 111.734 245.927 113.181 259.485 114.988V100.707C246.288 99.0799 230.018 97.6336 213.567 97.6336ZM213.567 227.251C196.936 220.562 183.92 210.439 174.7 197.423C165.842 184.768 160.961 169.945 160.961 155.302V122.762C156.442 123.485 146.86 125.293 146.86 125.293V155.482C146.86 173.018 152.645 190.915 163.13 205.739C175.062 222.551 191.874 235.025 213.567 242.617C220.075 240.267 226.041 237.736 231.645 234.482C231.284 234.302 220.618 230.144 213.567 227.251ZM266.354 101.792V155.302C266.354 169.945 261.473 184.949 252.615 197.423C244.661 208.631 233.995 217.67 220.618 224.178C226.583 226.709 234.538 229.601 237.611 230.867C248.277 223.997 257.135 215.501 264.185 205.558C274.67 190.553 280.455 172.656 280.455 155.302V103.961C276.478 103.238 271.597 102.515 266.354 101.792Z" fill="#8C6EDF"/>
<path d="M208.505 15.199C208.505 12.3066 210.856 9.95649 213.748 9.95649C216.64 9.95649 218.991 12.3066 218.991 15.199C218.991 18.0915 216.64 20.4416 213.748 20.4416C210.856 20.4416 208.505 18.0915 208.505 15.199ZM226.583 7.96794C228.753 8.14872 230.741 6.52172 230.922 4.35239C231.103 2.18305 229.476 0.194499 227.306 0.0137208C225.137 -0.167057 223.329 1.45994 223.148 3.62927C222.968 5.79861 224.414 7.78716 226.583 7.96794ZM196.393 4.35239C196.574 6.52172 198.563 8.14872 200.732 7.96794C202.901 7.78716 204.528 5.79861 204.348 3.62927C204.167 1.45994 202.178 -0.167057 200.009 0.0137208C197.84 0.194499 196.213 2.18305 196.393 4.35239ZM175.062 12.4874C177.231 11.945 178.496 9.77572 177.773 7.60638C177.231 5.43705 175.062 4.17161 172.892 4.89472C170.904 5.43705 169.638 7.60638 170.181 9.59494C170.723 11.5835 172.892 13.0297 175.062 12.4874ZM150.476 21.3455C152.464 20.4416 153.368 18.0915 152.464 16.1029C151.56 14.1144 149.21 13.2105 147.222 14.1144C145.233 15.0183 144.329 17.3684 145.233 19.3569C146.137 21.3455 148.487 22.2494 150.476 21.3455ZM128.059 34.3615C129.867 33.096 130.229 30.5651 128.963 28.9382C127.698 27.1304 125.167 26.7688 123.54 28.0343C121.732 29.2997 121.371 31.8306 122.636 33.4576C123.721 35.0846 126.252 35.6269 128.059 34.3615ZM107.993 50.993C109.62 49.366 109.62 47.0159 107.993 45.3889C106.366 43.7619 104.016 43.7619 102.389 45.3889C100.762 47.0159 100.762 49.366 102.389 50.993C104.016 52.62 106.547 52.62 107.993 50.993ZM84.8535 66.5399C83.588 68.3477 83.9496 70.8786 85.7574 71.9632C87.5652 73.2287 90.096 72.8671 91.1807 71.0594C92.2654 69.2516 92.0846 66.7207 90.2768 65.636C88.6498 64.1898 86.1189 64.7321 84.8535 66.5399ZM71.1144 90.2218C70.2105 92.2104 71.1144 94.5605 73.1029 95.4643C75.0915 96.3682 77.4416 95.4643 78.3455 93.4758C79.2494 91.4872 78.3455 89.1371 76.3569 88.2332C74.3684 87.3293 72.0183 88.2332 71.1144 90.2218ZM66.5949 113.181C64.6064 112.638 62.4371 113.904 61.7139 115.892C61.1716 118.062 62.4371 120.231 64.4256 120.773C66.5949 121.316 68.7643 120.05 69.3066 118.062C70.0297 115.892 68.7643 113.723 66.5949 113.181ZM57.0137 143.009C56.8329 145.178 58.4599 147.167 60.6293 147.348C62.7986 147.528 64.7872 145.901 64.9679 143.732C65.1487 141.563 63.5217 139.574 61.3524 139.393C59.1831 139.213 57.1945 140.84 57.0137 143.009ZM61.3524 173.922C63.5217 173.741 65.1487 171.753 64.9679 169.583C64.7872 167.414 62.7986 165.787 60.6293 165.968C58.4599 166.329 56.8329 168.137 57.0137 170.306C57.1945 172.476 59.1831 174.103 61.3524 173.922ZM66.5949 200.135C68.7643 199.592 70.0297 197.423 69.3066 195.254C68.7643 193.084 66.5949 191.819 64.4256 192.542C62.2563 193.084 60.9908 195.254 61.7139 197.423C62.4371 199.412 64.6064 200.677 66.5949 200.135ZM73.1029 217.851C71.1144 218.755 70.2105 221.105 71.1144 223.093C72.0183 225.082 74.3684 225.986 76.3569 225.082C78.3455 224.178 79.2494 221.828 78.3455 219.839C77.4416 217.851 75.0915 216.947 73.1029 217.851ZM85.7574 241.352C83.9496 242.617 83.588 245.148 84.8535 246.775C86.1189 248.583 88.6498 248.945 90.2768 247.679C92.0846 246.414 92.4461 243.883 91.1807 242.256C90.096 240.448 87.5652 240.086 85.7574 241.352ZM107.993 267.745C109.62 266.118 109.62 263.768 107.993 262.141C106.366 260.514 104.016 260.514 102.389 262.141C100.762 263.768 100.762 266.118 102.389 267.745C104.016 269.372 106.547 269.372 107.993 267.745ZM128.963 284.558C130.229 282.75 129.867 280.219 128.059 279.134C126.252 277.869 123.721 278.231 122.636 280.038C121.371 281.846 121.732 284.377 123.54 285.462C125.348 286.727 127.698 286.185 128.963 284.558ZM150.476 291.97C148.487 291.066 146.137 291.97 145.233 293.958C144.329 295.947 145.233 298.297 147.222 299.201C149.21 300.105 151.56 299.201 152.464 297.212C153.368 295.224 152.464 292.874 150.476 291.97ZM175.062 300.828C172.892 300.285 170.723 301.551 170.181 303.539C169.638 305.709 170.904 307.878 172.892 308.42C175.062 308.963 177.231 307.697 177.773 305.709C178.316 303.539 177.05 301.37 175.062 300.828ZM200.551 305.347C198.382 305.166 196.393 306.793 196.213 308.963C196.032 311.132 197.659 313.121 199.828 313.301C201.997 313.482 203.986 311.855 204.167 309.686C204.348 307.517 202.901 305.528 200.551 305.347ZM230.922 308.963C230.741 306.793 228.753 305.166 226.583 305.347C224.414 305.528 222.787 307.517 222.968 309.686C223.148 311.855 225.137 313.482 227.306 313.301C229.476 313.121 231.103 311.132 230.922 308.963ZM252.254 300.828C250.084 301.37 248.819 303.539 249.542 305.709C250.265 307.878 252.254 309.144 254.423 308.42C256.592 307.878 257.858 305.709 257.135 303.539C256.592 301.551 254.423 300.285 252.254 300.828ZM276.839 291.97C274.851 292.874 273.947 295.224 274.851 297.212C275.755 299.201 278.105 300.105 280.093 299.201C282.082 298.297 282.986 295.947 282.082 293.958C280.997 291.97 278.647 291.066 276.839 291.97ZM299.256 278.954C297.448 280.219 297.086 282.75 298.352 284.377C299.617 286.185 302.148 286.546 303.775 285.281C305.583 284.015 305.945 281.485 304.679 279.858C303.594 278.231 301.064 277.688 299.256 278.954ZM319.322 262.322C317.695 263.949 317.695 266.299 319.322 267.926C320.949 269.553 323.299 269.553 324.926 267.926C326.553 266.299 326.553 263.949 324.926 262.322C323.299 260.695 320.768 260.695 319.322 262.322ZM342.462 246.775C343.727 244.967 343.366 242.437 341.558 241.352C339.75 240.086 337.219 240.448 336.134 242.256C334.869 244.064 335.231 246.594 337.038 247.679C338.665 249.125 341.196 248.583 342.462 246.775ZM356.201 223.093C357.105 221.105 356.201 218.755 354.212 217.851C352.224 216.947 349.874 217.851 348.97 219.839C348.066 221.828 348.97 224.178 350.958 225.082C352.947 225.986 355.297 225.082 356.201 223.093ZM360.72 200.135C362.89 200.677 365.059 199.412 365.601 197.423C366.144 195.254 364.878 193.084 362.89 192.542C360.72 192 358.551 193.265 358.009 195.254C357.285 197.423 358.551 199.592 360.72 200.135ZM370.301 170.306C370.482 168.137 368.855 166.148 366.686 165.968C364.517 165.787 362.528 167.414 362.347 169.583C362.166 171.753 363.793 173.741 365.963 173.922C368.132 174.103 370.121 172.476 370.301 170.306ZM365.963 139.393C363.793 139.574 362.166 141.563 362.347 143.732C362.528 145.901 364.517 147.528 366.686 147.348C368.855 147.167 370.482 145.178 370.301 143.009C370.121 140.84 368.132 139.213 365.963 139.393ZM362.709 120.773C364.878 120.231 366.144 118.062 365.42 115.892C364.878 113.723 362.709 112.457 360.539 113.181C358.37 113.723 357.105 115.892 357.828 118.062C358.37 120.05 360.539 121.316 362.709 120.773ZM354.212 95.4643C356.201 94.5605 357.105 92.2104 356.201 90.2218C355.297 88.2332 352.947 87.3293 350.958 88.2332C348.97 89.1371 348.066 91.4872 348.97 93.4758C349.874 95.4643 352.224 96.3682 354.212 95.4643ZM341.558 71.9632C343.366 70.6978 343.727 68.1669 342.462 66.5399C341.196 64.9129 338.665 64.3706 337.038 65.636C335.231 66.9015 334.869 69.4324 336.134 71.0594C337.219 72.8671 339.75 73.2287 341.558 71.9632ZM319.322 45.5697C317.695 47.1967 317.695 49.5468 319.322 51.1738C320.949 52.8008 323.299 52.8008 324.926 51.1738C326.553 49.5468 326.553 47.1967 324.926 45.5697C323.299 43.9427 320.768 43.9427 319.322 45.5697ZM298.352 28.7574C297.086 30.5652 297.448 33.096 299.256 34.1807C301.064 35.4461 303.594 35.0846 304.679 33.2768C305.945 31.469 305.583 28.9382 303.775 27.8535C301.967 26.588 299.617 27.1304 298.352 28.7574ZM276.839 21.3455C278.828 22.2494 281.178 21.3455 282.082 19.3569C282.986 17.3684 282.082 15.0183 280.093 14.1144C278.105 13.2105 275.755 14.1144 274.851 16.1029C273.947 18.0915 274.851 20.4416 276.839 21.3455ZM252.254 12.4874C254.423 13.0297 256.592 11.7643 257.135 9.77572C257.677 7.60638 256.412 5.43705 254.423 4.89472C252.254 4.35239 250.084 5.61783 249.542 7.60638C249 9.77572 250.265 11.7643 252.254 12.4874ZM237.249 22.4302C240.142 22.9725 242.672 20.9839 243.215 18.2723C243.757 15.3798 241.769 12.8489 239.057 12.3066C236.164 11.7643 233.634 13.7528 233.091 16.4645C232.549 19.3569 234.537 21.8878 237.249 22.4302ZM257.135 22.0686C256.231 24.7803 257.496 27.6727 260.208 28.7574C262.92 29.6613 265.812 28.3958 266.897 25.6842C267.801 22.9725 266.535 20.08 263.823 18.9954C261.112 17.9107 258.219 19.3569 257.135 22.0686ZM279.913 31.6498C278.466 34.1807 279.37 37.2539 281.72 38.7001C284.251 40.1464 287.324 39.2425 288.771 36.8924C290.217 34.3615 289.313 31.2883 286.963 29.842C284.432 28.215 281.359 29.1189 279.913 31.6498ZM300.521 45.0274C298.713 47.1967 298.894 50.4507 301.244 52.2585C303.594 54.0662 306.668 53.8855 308.475 51.5354C310.283 49.366 310.102 46.112 307.752 44.3043C305.764 42.4965 302.51 42.858 300.521 45.0274ZM318.599 61.8397C316.43 63.6475 316.068 66.9015 317.876 69.0708C319.684 71.2401 322.938 71.6017 325.107 69.7939C327.276 67.9861 327.638 64.7321 325.83 62.5628C324.203 60.2127 320.949 60.0319 318.599 61.8397ZM338.665 90.4026C341.196 88.9563 341.919 85.8831 340.473 83.3522C339.027 80.8214 335.954 80.0982 333.423 81.5445C330.892 82.9907 330.169 86.0639 331.615 88.5948C333.061 90.9449 336.315 91.8488 338.665 90.4026ZM341.739 110.107C342.642 112.819 345.716 114.084 348.427 113.181C351.139 112.277 352.404 109.203 351.501 106.492C350.597 103.78 347.523 102.515 344.812 103.419C342.1 104.322 340.654 107.396 341.739 110.107ZM352.043 126.92C349.15 127.462 347.343 130.174 347.885 132.885C348.427 135.778 351.139 137.586 353.851 137.043C356.743 136.501 358.551 133.789 358.009 131.078C357.466 128.366 354.935 126.558 352.043 126.92ZM355.116 151.505C352.224 151.505 349.874 153.856 349.874 156.748C349.874 159.64 352.224 161.991 355.116 161.991C358.009 161.991 360.359 159.64 360.359 156.748C360.359 153.856 358.009 151.505 355.116 151.505ZM352.043 186.215C354.935 186.757 357.466 184.769 358.009 182.057C358.551 179.164 356.562 176.634 353.851 176.091C350.958 175.549 348.427 177.537 347.885 180.249C347.343 183.142 349.15 185.853 352.043 186.215ZM351.501 206.823C352.404 204.112 351.139 201.219 348.427 200.135C345.716 199.231 342.823 200.496 341.739 203.208C340.835 205.92 342.1 208.812 344.812 209.897C347.523 210.981 350.416 209.535 351.501 206.823ZM340.654 229.963C342.1 227.432 341.196 224.359 338.846 222.913C336.315 221.466 333.242 222.37 331.796 224.72C330.35 227.251 331.253 230.324 333.604 231.771C335.954 233.217 339.208 232.494 340.654 229.963ZM325.288 243.521C323.118 241.713 319.864 241.894 318.057 244.244C316.249 246.414 316.43 249.668 318.78 251.475C320.949 253.283 324.203 253.102 326.011 250.752C327.819 248.764 327.457 245.51 325.288 243.521ZM301.244 261.057C299.075 262.864 298.713 266.118 300.521 268.288C302.329 270.457 305.583 270.819 307.752 269.011C309.922 267.203 310.283 263.949 308.475 261.78C306.668 259.43 303.414 259.249 301.244 261.057ZM288.771 276.604C287.324 274.073 284.251 273.35 281.72 274.796C279.19 276.242 278.466 279.315 279.913 281.846C281.359 284.377 284.432 285.1 286.963 283.654C289.494 282.208 290.217 278.954 288.771 276.604ZM266.897 287.812C265.993 285.1 262.92 283.835 260.208 284.739C257.496 285.642 256.231 288.716 257.135 291.427C258.039 294.139 261.112 295.404 263.823 294.501C266.535 293.597 267.801 290.523 266.897 287.812ZM243.215 295.043C242.672 292.15 239.961 290.343 237.249 290.885C234.537 291.427 232.549 294.139 233.091 296.851C233.634 299.743 236.345 301.551 239.057 301.009C241.949 300.466 243.757 297.935 243.215 295.043ZM213.567 292.874C210.675 292.874 208.325 295.224 208.325 298.116C208.325 301.009 210.675 303.359 213.567 303.359C216.46 303.359 218.81 301.009 218.81 298.116C218.81 295.224 216.46 292.874 213.567 292.874ZM190.066 290.885C187.174 290.343 184.643 292.331 184.1 295.043C183.558 297.935 185.547 300.466 188.258 301.009C190.97 301.551 193.682 299.562 194.224 296.851C194.766 293.958 192.778 291.427 190.066 290.885ZM170.181 291.247C171.084 288.535 169.819 285.642 167.107 284.558C164.396 283.654 161.503 284.919 160.419 287.631C159.515 290.343 160.78 293.235 163.492 294.32C166.203 295.404 169.096 293.958 170.181 291.247ZM147.403 281.665C148.849 279.134 147.945 276.061 145.595 274.615C143.064 273.169 139.991 274.073 138.544 276.423C137.098 278.954 138.002 282.027 140.352 283.473C142.883 285.1 145.956 284.196 147.403 281.665ZM126.794 268.288C128.602 266.118 128.421 262.864 126.071 261.057C123.901 259.249 120.647 259.43 118.84 261.78C117.032 263.949 117.213 267.203 119.563 269.011C121.551 270.819 124.805 270.457 126.794 268.288ZM108.716 251.475C110.885 249.668 111.247 246.414 109.439 244.244C107.631 242.075 104.377 241.713 102.208 243.521C100.039 245.329 99.6773 248.583 101.485 250.752C103.112 253.102 106.366 253.283 108.716 251.475ZM88.6498 222.913C86.1189 224.359 85.3958 227.432 86.842 229.963C88.2883 232.494 91.3615 233.217 93.8924 231.771C96.4233 230.324 97.1464 227.251 95.7001 224.72C94.2539 222.37 90.9999 221.466 88.6498 222.913ZM85.5766 203.208C84.6727 200.496 81.5995 199.231 78.8878 200.135C76.1762 201.039 74.9107 204.112 75.8146 206.823C76.7185 209.535 79.7917 210.801 82.5034 209.897C85.215 208.993 86.6613 205.92 85.5766 203.208ZM75.2723 186.215C78.1647 185.672 79.9725 182.961 79.4302 180.249C78.8878 177.537 76.1762 175.549 73.4645 176.091C70.572 176.634 68.7643 179.345 69.3066 182.057C69.8489 184.769 72.3798 186.757 75.2723 186.215ZM67.1373 156.567C67.1373 159.46 69.4874 161.81 72.3798 161.81C75.2723 161.81 77.6224 159.46 77.6224 156.567C77.6224 153.675 75.2723 151.325 72.3798 151.325C69.3066 151.505 67.1373 153.856 67.1373 156.567ZM75.2723 126.92C72.3798 126.377 69.8489 128.366 69.3066 131.078C68.7643 133.789 70.7528 136.501 73.4645 137.043C76.3569 137.586 78.8878 135.597 79.4302 132.885C79.9725 130.174 78.1647 127.462 75.2723 126.92ZM75.8146 106.492C74.9107 109.203 76.1762 112.096 78.8878 113.181C81.5995 114.265 84.4919 112.819 85.5766 110.107C86.4805 107.396 85.215 104.503 82.5034 103.419C79.7917 102.515 76.8993 103.78 75.8146 106.492ZM86.6613 83.3522C85.215 85.8831 86.1189 88.9563 88.469 90.4026C90.9999 91.8488 94.0731 90.9449 95.5194 88.5948C96.9656 86.0639 96.0617 82.9907 93.7116 81.5445C91.3615 80.0982 88.1075 80.8214 86.6613 83.3522ZM102.027 69.7939C104.197 71.6017 107.451 71.4209 109.258 69.0708C111.066 66.9015 110.885 63.6475 108.535 61.8397C106.366 60.0319 103.112 60.2127 101.304 62.5628C99.4965 64.5514 99.858 67.8054 102.027 69.7939ZM126.071 52.2585C128.24 50.4507 128.602 47.1967 126.794 45.0274C124.986 42.858 121.732 42.4965 119.563 44.3043C117.393 46.112 117.032 49.366 118.84 51.5354C120.647 53.8855 123.901 54.0662 126.071 52.2585ZM138.544 36.7116C139.991 39.2425 143.064 39.9656 145.595 38.5194C148.126 37.0731 148.849 33.9999 147.403 31.469C145.956 28.9382 142.883 28.215 140.352 29.6613C137.821 31.1075 137.098 34.3615 138.544 36.7116ZM160.419 25.5034C161.322 28.215 164.396 29.4805 167.107 28.5766C169.819 27.6727 171.084 24.5995 170.181 21.8878C169.277 19.1762 166.203 17.9107 163.492 18.8146C160.78 19.8993 159.515 22.7917 160.419 25.5034ZM183.92 18.2723C184.462 21.1647 187.174 22.9725 189.885 22.4302C192.778 21.8878 194.586 19.1762 194.043 16.4645C193.501 13.572 190.789 11.7643 188.078 12.3066C185.366 12.8489 183.558 15.3798 183.92 18.2723ZM201.817 22.0686C198.563 22.4302 196.032 25.3226 196.393 28.5766C196.755 31.8306 199.647 34.3615 202.901 33.9999C206.155 33.6384 208.686 30.7459 208.325 27.4919C208.144 24.2379 205.251 21.8878 201.817 22.0686ZM224.414 34.1807C227.668 34.5423 230.741 32.0114 230.922 28.7574C231.283 25.5034 228.753 22.4302 225.499 22.2494C222.245 21.8878 219.171 24.4187 218.991 27.6727C218.629 30.9267 220.979 33.9999 224.414 34.1807ZM241.226 30.5651C240.322 33.8191 242.311 37.0731 245.565 37.977C248.819 38.8809 252.073 36.8924 252.977 33.6384C253.881 30.3844 251.892 27.1304 248.638 26.2265C245.384 25.3226 242.13 27.3112 241.226 30.5651ZM270.693 34.3615C267.62 32.9153 264.004 34.1807 262.558 37.2539C261.112 40.3271 262.377 43.9427 265.45 45.3889C268.524 46.8351 272.139 45.5697 273.585 42.4965C275.032 39.4233 273.766 35.6269 270.693 34.3615ZM284.07 56.0548C286.782 58.0434 290.578 57.3203 292.567 54.6086C294.556 51.8969 293.832 48.1006 291.121 46.112C288.409 44.1235 284.613 44.8466 282.624 47.5583C280.817 50.2699 281.359 54.0662 284.07 56.0548ZM300.521 61.1166C298.171 63.4667 298.171 67.263 300.521 69.6131C302.871 71.9632 306.668 71.9632 309.018 69.6131C311.368 67.263 311.368 63.4667 309.018 61.1166C306.668 58.7665 302.871 58.7665 300.521 61.1166ZM322.757 87.6909C325.469 85.7023 326.192 81.906 324.203 79.1944C322.215 76.4827 318.418 75.7596 315.707 77.7481C312.995 79.7367 312.272 83.533 314.26 86.2447C316.249 88.9564 320.045 89.4987 322.757 87.6909ZM325.107 104.684C326.553 107.757 330.169 109.023 333.242 107.576C336.315 106.13 337.581 102.515 336.134 99.4415C334.688 96.3682 331.073 95.1028 327.999 96.549C324.926 97.9952 323.661 101.611 325.107 104.684ZM336.677 117.338C333.423 118.242 331.615 121.496 332.338 124.75C333.242 128.004 336.496 129.812 339.75 129.089C343.004 128.185 344.812 124.931 344.089 121.677C343.366 118.423 339.931 116.615 336.677 117.338ZM341.558 139.393C338.304 139.755 335.773 142.647 336.134 145.901C336.496 149.155 339.388 151.686 342.642 151.325C345.896 150.963 348.427 148.071 348.066 144.817C347.885 141.563 344.993 139.032 341.558 139.393ZM348.247 168.499C348.608 165.245 346.077 162.171 342.823 161.991C339.569 161.629 336.496 164.16 336.315 167.414C336.134 170.668 338.485 173.741 341.739 173.922C344.993 174.283 347.885 171.753 348.247 168.499ZM336.677 195.796C339.931 196.7 343.185 194.711 344.089 191.457C344.993 188.203 343.004 184.949 339.75 184.045C336.496 183.142 333.242 185.13 332.338 188.384C331.434 191.638 333.423 195.073 336.677 195.796ZM335.954 213.693C337.4 210.62 336.134 207.004 333.061 205.558C329.988 204.112 326.372 205.377 324.926 208.45C323.48 211.524 324.745 215.139 327.819 216.585C331.073 218.032 334.688 216.766 335.954 213.693ZM315.887 235.567C318.599 237.556 322.395 236.832 324.384 234.121C326.372 231.409 325.649 227.613 322.938 225.624C320.226 223.636 316.43 224.359 314.441 227.07C312.453 229.963 312.995 233.759 315.887 235.567ZM300.521 243.521C298.171 245.871 298.171 249.668 300.521 252.018C302.871 254.368 306.668 254.368 309.018 252.018C311.368 249.668 311.368 245.871 309.018 243.521C306.848 241.171 302.871 241.171 300.521 243.521ZM284.07 257.26C281.359 259.249 280.636 263.045 282.624 265.757C284.613 268.469 288.409 269.192 291.121 267.203C293.832 265.215 294.556 261.418 292.567 258.707C290.759 255.995 286.963 255.453 284.07 257.26ZM265.631 268.107C262.558 269.553 261.293 273.169 262.739 276.242C264.185 279.315 267.801 280.581 270.874 279.134C273.947 277.688 275.212 274.073 273.766 270.999C272.32 267.926 268.704 266.661 265.631 268.107ZM252.796 279.677C251.892 276.423 248.638 274.615 245.384 275.338C242.13 276.242 240.322 279.496 241.045 282.75C241.949 286.004 245.203 287.812 248.457 287.089C251.892 286.185 253.7 282.931 252.796 279.677ZM225.499 291.247C228.753 290.885 231.283 287.993 230.922 284.739C230.56 281.485 227.668 278.954 224.414 279.315C221.16 279.677 218.629 282.569 218.991 285.823C219.171 289.077 222.064 291.427 225.499 291.247ZM202.901 279.134C199.647 278.773 196.574 281.304 196.393 284.558C196.032 287.812 198.563 290.885 201.817 291.066C205.071 291.427 208.144 288.896 208.325 285.642C208.686 282.388 206.336 279.315 202.901 279.134ZM186.089 282.75C186.993 279.496 185.004 276.242 181.75 275.338C178.496 274.434 175.242 276.423 174.338 279.677C173.435 282.931 175.423 286.185 178.677 287.089C181.931 287.993 185.185 286.004 186.089 282.75ZM156.622 278.954C159.695 280.4 163.311 279.134 164.757 276.061C166.203 272.988 164.938 269.372 161.865 267.926C158.792 266.48 155.176 267.745 153.73 270.819C152.284 274.073 153.549 277.688 156.622 278.954ZM143.245 257.26C140.533 255.272 136.737 255.995 134.748 258.707C132.76 261.418 133.483 265.215 136.194 267.203C138.906 269.192 142.702 268.469 144.691 265.757C146.499 263.045 145.956 259.249 143.245 257.26ZM126.794 252.199C129.144 249.848 129.144 246.052 126.794 243.702C124.444 241.352 120.647 241.352 118.297 243.702C115.947 246.052 115.947 249.848 118.297 252.199C120.467 254.549 124.444 254.549 126.794 252.199ZM104.558 225.624C101.847 227.613 101.123 231.409 103.112 234.121C105.101 236.832 108.897 237.556 111.609 235.567C114.32 233.578 115.043 229.782 113.055 227.07C111.066 224.359 107.27 223.817 104.558 225.624ZM102.208 208.631C100.762 205.558 97.1464 204.293 94.0731 205.739C90.9999 207.185 89.7345 210.801 91.1807 213.874C92.6269 216.947 96.2425 218.212 99.3157 216.766C102.389 215.32 103.654 211.704 102.208 208.631ZM90.6384 195.796C93.8924 194.892 95.7001 191.638 94.977 188.384C94.2539 185.13 90.8191 183.322 87.5651 184.045C84.3112 184.949 82.5034 188.203 83.2265 191.457C84.1304 194.892 87.3844 196.7 90.6384 195.796ZM85.7574 173.922C89.0114 173.56 91.5423 170.668 91.1807 167.414C90.8191 164.16 87.9267 161.629 84.6727 161.991C81.4187 162.352 78.8878 165.245 79.2494 168.499C79.4302 171.753 82.3226 174.283 85.7574 173.922ZM79.0686 144.817C78.707 148.071 81.2379 151.144 84.4919 151.325C87.7459 151.686 90.8191 149.155 90.9999 145.901C91.1807 142.647 88.8306 139.574 85.5766 139.393C82.3226 139.032 79.4302 141.563 79.0686 144.817ZM90.6384 117.338C87.3844 116.435 84.1304 118.423 83.2265 121.677C82.3226 124.931 84.3112 128.185 87.5651 129.089C90.8191 129.993 94.0731 128.004 94.977 124.75C95.8809 121.677 93.8924 118.242 90.6384 117.338ZM91.3615 99.6222C89.9153 102.695 91.1807 106.311 94.2539 107.757C97.3271 109.203 100.943 107.938 102.389 104.865C103.835 101.792 102.57 98.176 99.4965 96.7298C96.2425 95.2836 92.6269 96.549 91.3615 99.6222ZM111.428 77.7481C108.716 75.7596 104.92 76.4827 102.931 79.1944C100.943 81.906 101.666 85.7023 104.377 87.6909C107.089 89.6795 110.885 88.9564 112.874 86.2447C114.863 83.3522 114.139 79.5559 111.428 77.7481ZM126.794 69.7939C129.144 67.4438 129.144 63.6475 126.794 61.2974C124.444 58.9473 120.647 58.9473 118.297 61.2974C115.947 63.6475 115.947 67.4438 118.297 69.7939C120.467 72.144 124.444 72.144 126.794 69.7939ZM143.245 56.0548C145.956 54.0662 146.679 50.2699 144.691 47.5583C142.702 44.8466 138.906 44.1235 136.194 46.112C133.483 48.1006 132.76 51.8969 134.748 54.6086C136.556 57.1395 140.352 57.8626 143.245 56.0548ZM161.684 45.2081C164.757 43.7619 166.023 40.1464 164.576 37.0731C163.13 33.9999 159.515 32.7345 156.441 34.1807C153.368 35.6269 152.103 39.2425 153.549 42.3157C154.995 45.3889 158.611 46.6544 161.684 45.2081ZM174.338 33.6384C175.242 36.8924 178.496 38.7001 181.75 37.977C185.004 37.0731 186.812 33.8191 186.089 30.5651C185.185 27.3112 181.931 25.5034 178.677 26.2265C175.423 27.1304 173.615 30.3844 174.338 33.6384ZM192.235 35.6269C188.439 36.35 185.727 39.9656 186.451 43.7619C187.174 47.5583 190.789 50.2699 194.586 49.5468C198.382 48.8237 201.094 45.2081 200.37 41.4118C199.828 37.4347 196.213 34.9038 192.235 35.6269ZM171.627 41.231C168.011 42.4965 166.023 46.6544 167.469 50.2699C168.734 53.8855 172.892 55.874 176.508 54.4278C180.123 53.1624 182.112 49.0045 180.666 45.3889C179.4 41.7734 175.242 39.7848 171.627 41.231ZM159.334 62.5628C162.769 60.5742 163.853 56.2356 161.865 52.8008C159.876 49.366 155.538 48.2814 152.103 50.2699C148.668 52.2585 147.583 56.5971 149.572 60.0319C151.56 63.2859 155.899 64.3706 159.334 62.5628ZM133.844 72.5056C136.375 75.5788 140.895 75.9404 143.787 73.4095C146.86 70.8786 147.222 66.3591 144.691 63.4667C142.16 60.3935 137.641 60.0319 134.748 62.5628C131.675 65.0937 131.313 69.4324 133.844 72.5056ZM107.27 95.2836C105.281 98.7183 106.547 103.057 109.801 105.046C113.236 107.034 117.574 105.769 119.563 102.515C121.551 99.0799 120.286 94.7412 117.032 92.7527C113.416 90.5833 109.258 91.8488 107.27 95.2836ZM98.231 114.627C96.9656 118.242 98.7734 122.4 102.389 123.666C106.004 124.931 110.162 123.123 111.428 119.508C112.693 115.892 110.885 111.734 107.27 110.469C103.474 109.023 99.4965 111.011 98.231 114.627ZM92.6269 135.235C91.9038 139.032 94.4347 142.828 98.4118 143.37C102.208 144.094 106.004 141.563 106.547 137.586C107.27 133.789 104.739 129.993 100.762 129.451C96.7848 128.908 93.35 131.439 92.6269 135.235ZM97.8695 149.517C93.8924 149.517 90.8191 152.771 90.8191 156.567C90.8191 160.364 94.0731 163.618 97.8695 163.618C101.847 163.618 104.92 160.364 104.92 156.567C104.92 152.771 101.666 149.517 97.8695 149.517ZM100.762 183.684C104.558 182.961 107.27 179.345 106.547 175.549C105.824 171.753 102.208 169.041 98.4118 169.764C94.6155 170.487 91.9038 174.103 92.6269 177.899C93.35 181.876 96.9656 184.407 100.762 183.684ZM107.27 202.846C110.885 201.581 112.874 197.423 111.428 193.807C110.162 190.192 106.004 188.203 102.389 189.65C98.7734 190.915 96.7848 195.073 98.231 198.688C99.4965 202.304 103.474 204.293 107.27 202.846ZM116.851 220.743C120.286 218.755 121.371 214.416 119.382 210.981C117.393 207.547 113.055 206.462 109.62 208.45C106.185 210.439 105.101 214.778 107.089 218.212C109.258 221.466 113.416 222.732 116.851 220.743ZM129.506 236.471C132.579 233.94 132.94 229.421 130.409 226.528C127.879 223.455 123.359 223.093 120.467 225.624C117.393 228.155 117.032 232.675 119.563 235.567C122.094 238.64 126.432 239.002 129.506 236.471ZM143.787 239.906C140.714 237.375 136.375 237.736 133.844 240.81C131.313 243.883 131.675 248.221 134.748 250.752C137.821 253.283 142.16 252.922 144.691 249.848C147.222 246.956 146.679 242.437 143.787 239.906ZM159.334 250.752C155.899 248.764 151.56 250.029 149.572 253.283C147.583 256.537 148.849 261.057 152.103 263.045C155.538 265.034 159.876 263.768 161.865 260.514C163.853 257.26 162.588 252.741 159.334 250.752ZM171.627 272.084C175.242 273.35 179.4 271.542 180.666 267.926C181.931 264.311 180.123 260.153 176.508 258.887C172.892 257.622 168.734 259.43 167.469 263.045C166.023 266.661 168.011 270.819 171.627 272.084ZM192.235 277.688C196.032 278.411 199.828 275.88 200.37 271.903C201.094 268.107 198.563 264.311 194.586 263.768C190.789 263.045 186.993 265.576 186.451 269.553C185.908 273.35 188.439 276.965 192.235 277.688ZM213.567 279.496C217.544 279.496 220.618 276.242 220.618 272.446C220.618 268.469 217.364 265.395 213.567 265.395C209.59 265.395 206.517 268.649 206.517 272.446C206.517 276.423 209.771 279.496 213.567 279.496ZM235.08 277.688C238.876 276.965 241.588 273.35 240.865 269.553C240.142 265.757 236.526 263.045 232.73 263.768C228.933 264.491 226.222 268.107 226.945 271.903C227.487 275.88 231.103 278.411 235.08 277.688ZM255.688 272.084C259.304 270.819 261.293 266.661 259.846 263.045C258.581 259.43 254.423 257.441 250.807 258.887C247.192 260.153 245.203 264.311 246.65 267.926C247.915 271.542 252.073 273.53 255.688 272.084ZM267.981 250.752C264.547 252.741 263.462 257.08 265.45 260.514C267.439 263.949 271.778 265.034 275.212 263.045C278.647 261.057 279.732 256.718 277.743 253.283C275.755 250.029 271.416 248.945 267.981 250.752ZM293.471 240.81C290.94 237.736 286.421 237.375 283.528 239.906C280.455 242.437 280.093 246.956 282.624 249.848C285.155 252.922 289.675 253.283 292.567 250.752C295.64 248.221 296.002 243.883 293.471 240.81ZM297.81 236.471C300.883 239.002 305.221 238.64 307.752 235.567C310.283 232.494 309.922 228.155 306.848 225.624C303.775 223.093 299.437 223.455 296.906 226.528C294.375 229.601 294.917 233.94 297.81 236.471ZM320.045 218.032C322.034 214.597 320.768 210.258 317.514 208.27C314.08 206.281 309.741 207.547 307.752 210.801C305.764 214.235 307.029 218.574 310.283 220.563C313.718 222.732 318.057 221.466 320.045 218.032ZM329.084 198.688C330.35 195.073 328.542 190.915 324.926 189.65C321.311 188.384 317.153 190.192 315.887 193.807C314.622 197.423 316.43 201.581 320.045 202.846C323.661 204.293 327.819 202.304 329.084 198.688ZM334.688 178.08C335.411 174.283 332.88 170.487 328.903 169.945C324.926 169.402 321.311 171.753 320.768 175.73C320.045 179.526 322.576 183.322 326.553 183.865C330.35 184.407 333.965 181.876 334.688 178.08ZM329.446 149.517C325.469 149.517 322.395 152.771 322.395 156.567C322.395 160.364 325.649 163.618 329.446 163.618C333.423 163.618 336.496 160.364 336.496 156.567C336.496 152.771 333.423 149.517 329.446 149.517ZM326.553 129.631C322.757 130.354 320.045 133.97 320.768 137.766C321.491 141.563 325.107 144.274 328.903 143.551C332.7 142.828 335.411 139.213 334.688 135.416C333.965 131.439 330.35 128.908 326.553 129.631ZM320.045 110.469C316.43 111.734 314.441 115.892 315.887 119.508C317.153 123.123 321.311 125.112 324.926 123.666C328.542 122.4 330.53 118.242 329.084 114.627C327.819 111.011 323.661 109.023 320.045 110.469ZM310.464 92.5719C307.029 94.5605 305.945 98.8991 307.933 102.334C309.922 105.769 314.26 106.853 317.695 104.865C321.13 102.876 322.215 98.5376 320.226 95.1028C318.057 91.8488 313.718 90.5834 310.464 92.5719ZM302.691 74.8557C298.713 74.8557 295.459 78.1097 295.459 82.0868C295.459 86.0639 298.713 89.3179 302.691 89.3179C306.668 89.3179 309.922 86.0639 309.922 82.0868C309.922 78.1097 306.668 74.8557 302.691 74.8557ZM283.528 73.4095C286.601 75.9404 290.94 75.5788 293.471 72.5056C296.002 69.4324 295.64 65.0937 292.567 62.5628C289.494 60.0319 285.155 60.3935 282.624 63.4667C280.093 66.3591 280.636 70.8786 283.528 73.4095ZM267.981 62.5628C271.416 64.5514 275.755 63.2859 277.743 60.0319C279.732 56.5971 278.466 52.2585 275.212 50.2699C271.778 48.2814 267.439 49.5468 265.45 52.8008C263.462 56.2356 264.547 60.5742 267.981 62.5628ZM255.688 41.231C252.073 39.9656 247.915 41.7734 246.65 45.3889C245.384 49.0045 247.192 53.1624 250.807 54.4278C254.423 55.6932 258.581 53.8855 259.846 50.2699C261.112 46.6544 259.304 42.4965 255.688 41.231ZM235.08 35.6269C231.283 34.9038 227.487 37.4347 226.945 41.4118C226.222 45.2081 228.753 49.0045 232.73 49.5468C236.526 50.2699 240.322 47.739 240.865 43.7619C241.407 39.9656 238.876 36.35 235.08 35.6269ZM204.167 48.8237C200.19 49.1853 197.116 52.8008 197.478 56.7779C197.84 60.755 201.455 63.8282 205.432 63.4667C209.409 63.1051 212.483 59.4896 212.121 55.5125C211.759 51.3546 208.325 48.4621 204.167 48.8237ZM180.485 61.1166C181.57 65.0937 185.547 67.263 189.524 66.3591C193.501 65.2745 195.67 61.2974 194.766 57.3203C193.682 53.3431 189.705 51.1738 185.727 52.0777C181.75 53.1624 179.4 57.1395 180.485 61.1166ZM164.396 68.1669C166.023 71.7825 170.542 73.4095 174.158 71.7825C177.773 70.1555 179.4 65.636 177.773 62.0205C176.146 58.4049 171.627 56.7779 168.011 58.4049C164.215 60.2127 162.588 64.5514 164.396 68.1669ZM123.178 132.343C124.263 128.366 121.913 124.389 117.936 123.304C113.959 122.219 109.982 124.57 108.897 128.547C107.812 132.524 110.162 136.501 114.139 137.586C118.117 138.67 122.094 136.32 123.178 132.343ZM113.778 140.478C109.801 140.116 106.185 143.19 105.824 147.167C105.462 151.144 108.535 154.759 112.512 155.121C116.49 155.483 120.105 152.409 120.467 148.432C120.647 144.455 117.755 140.84 113.778 140.478ZM113.778 172.837C117.755 172.476 120.828 168.86 120.467 164.883C120.105 160.906 116.49 157.833 112.512 158.194C108.535 158.556 105.462 162.171 105.824 166.148C106.185 170.126 109.62 173.018 113.778 172.837ZM114.32 175.73C110.343 176.814 108.174 180.791 109.078 184.769C110.162 188.746 114.139 190.915 118.117 190.011C122.094 188.926 124.263 184.949 123.359 180.972C122.094 176.995 118.117 174.645 114.32 175.73ZM115.586 202.485C117.213 206.1 121.732 207.727 125.348 206.1C128.963 204.473 130.59 199.954 128.963 196.338C127.336 192.723 122.817 191.096 119.201 192.723C115.405 194.35 113.778 198.688 115.586 202.485ZM136.917 210.439C134.567 207.185 130.048 206.281 126.794 208.631C123.54 210.981 122.636 215.501 124.986 218.755C127.336 222.009 131.856 222.913 135.11 220.563C138.544 218.212 139.268 213.693 136.917 210.439ZM147.403 222.913C144.51 220.02 139.991 220.02 137.098 222.913C134.206 225.805 134.206 230.324 137.098 233.217C139.991 236.109 144.51 236.109 147.403 233.217C150.295 230.324 150.295 225.805 147.403 222.913ZM290.217 233.217C293.109 230.324 293.109 225.805 290.217 222.913C287.324 220.02 282.805 220.02 279.913 222.913C277.02 225.805 277.02 230.324 279.913 233.217C282.805 236.109 287.324 236.109 290.217 233.217ZM302.329 218.755C304.679 215.501 303.775 210.801 300.521 208.631C297.267 206.281 292.567 207.185 290.398 210.439C288.048 213.693 288.952 218.393 292.206 220.563C295.46 222.913 299.979 222.009 302.329 218.755ZM308.295 192.723C304.679 191.096 300.34 192.542 298.533 196.338C296.906 199.954 298.352 204.293 302.148 206.1C305.764 207.727 310.102 206.281 311.91 202.485C313.537 198.688 311.91 194.35 308.295 192.723ZM318.237 184.769C319.322 180.791 316.972 176.814 312.995 175.73C309.018 174.645 305.041 176.995 303.956 180.972C302.871 184.949 305.221 188.926 309.199 190.011C313.176 190.915 317.153 188.565 318.237 184.769ZM321.491 166.148C321.853 162.171 318.78 158.556 314.803 158.194C310.826 157.833 307.21 160.906 306.848 164.883C306.487 168.86 309.56 172.476 313.537 172.837C317.695 173.018 321.13 170.126 321.491 166.148ZM321.491 147.167C321.13 143.19 317.514 140.116 313.537 140.478C309.56 140.84 306.487 144.455 306.848 148.432C307.21 152.409 310.826 155.483 314.803 155.121C318.961 154.759 321.853 151.325 321.491 147.167ZM312.995 137.586C316.972 136.501 319.141 132.524 318.237 128.547C317.153 124.57 313.176 122.4 309.199 123.304C305.221 124.389 303.052 128.366 303.956 132.343C305.221 136.32 309.199 138.67 312.995 137.586ZM249.723 62.0205C248.096 65.636 249.542 69.9747 253.338 71.7825C256.954 73.4095 261.293 71.9632 263.1 68.1669C264.727 64.5514 263.281 60.2127 259.485 58.4049C255.688 56.7779 251.35 58.4049 249.723 62.0205ZM241.769 52.0777C237.791 50.993 233.814 53.3431 232.73 57.3203C231.645 61.2974 233.995 65.2745 237.972 66.3591C241.949 67.4438 245.926 65.0937 247.011 61.1166C247.915 57.1395 245.565 53.1624 241.769 52.0777ZM215.194 55.5125C214.833 59.4896 217.906 63.1051 221.883 63.4667C225.86 63.8282 229.476 60.755 229.837 56.7779C230.199 52.8008 227.126 49.1853 223.148 48.8237C218.991 48.4621 215.556 51.3546 215.194 55.5125ZM213.567 33.8191C209.59 33.8191 206.517 37.0731 206.517 40.8695C206.517 44.6658 209.771 47.9198 213.567 47.9198C217.544 47.9198 220.618 44.6658 220.618 40.8695C220.618 37.0731 217.544 33.8191 213.567 33.8191ZM271.597 66.5399C267.62 66.5399 264.366 69.7939 264.366 73.771C264.366 77.7481 267.62 81.0021 271.597 81.0021C275.574 81.0021 278.828 77.7481 278.828 73.771C278.828 69.7939 275.574 66.5399 271.597 66.5399ZM285.698 78.2905C282.624 78.2905 280.274 80.8214 280.274 83.7138C280.274 86.6062 282.805 89.1371 285.698 89.1371C288.771 89.1371 291.121 86.6062 291.121 83.7138C291.121 80.8214 288.59 78.2905 285.698 78.2905ZM141.618 78.2905C138.544 78.2905 136.194 80.8214 136.194 83.7138C136.194 86.6062 138.725 89.1371 141.618 89.1371C144.51 89.1371 147.041 86.6062 147.041 83.7138C147.041 80.8214 144.691 78.2905 141.618 78.2905ZM129.506 91.8488C126.432 91.8488 124.082 94.3797 124.082 97.2721C124.082 100.165 126.613 102.695 129.506 102.695C132.398 102.695 134.929 100.165 134.929 97.2721C134.929 94.3797 132.579 91.8488 129.506 91.8488ZM297.81 91.8488C294.736 91.8488 292.386 94.3797 292.386 97.2721C292.386 100.165 294.917 102.695 297.81 102.695C300.883 102.695 303.233 100.165 303.233 97.2721C303.233 94.3797 300.883 91.8488 297.81 91.8488ZM305.583 106.853C301.606 106.853 298.352 110.107 298.352 114.084C298.352 118.062 301.606 121.316 305.583 121.316C309.56 121.316 312.814 118.062 312.814 114.084C312.814 110.107 309.56 106.853 305.583 106.853ZM271.597 232.132C267.62 232.132 264.366 235.386 264.366 239.363C264.366 243.34 267.62 246.594 271.597 246.594C275.574 246.594 278.828 243.34 278.828 239.363C278.828 235.386 275.574 232.132 271.597 232.132ZM155.718 232.132C151.741 232.132 148.487 235.386 148.487 239.363C148.487 243.34 151.741 246.594 155.718 246.594C159.695 246.594 162.949 243.34 162.949 239.363C162.949 235.386 159.695 232.132 155.718 232.132ZM169.819 243.521C166.565 243.521 163.853 246.233 163.853 249.487C163.853 252.741 166.565 255.453 169.819 255.453C173.073 255.453 175.785 252.741 175.785 249.487C175.785 246.233 173.254 243.521 169.819 243.521ZM186.27 254.006C183.92 254.006 181.931 255.995 181.931 258.345C181.931 260.695 183.92 262.684 186.27 262.684C188.62 262.684 190.608 260.695 190.608 258.345C190.608 255.995 188.801 254.006 186.27 254.006ZM240.865 254.006C238.515 254.006 236.526 255.995 236.526 258.345C236.526 260.695 238.515 262.684 240.865 262.684C243.215 262.684 245.203 260.695 245.203 258.345C245.203 255.995 243.215 254.006 240.865 254.006ZM256.773 243.521C253.519 243.521 250.807 246.233 250.807 249.487C250.807 252.741 253.519 255.453 256.773 255.453C260.027 255.453 262.739 252.741 262.739 249.487C262.739 246.233 260.208 243.521 256.773 243.521ZM124.986 74.8557C121.009 74.8557 117.755 78.1097 117.755 82.0868C117.755 86.0639 121.009 89.3179 124.986 89.3179C128.963 89.3179 132.217 86.0639 132.217 82.0868C132.036 78.1097 128.963 74.8557 124.986 74.8557ZM155.718 66.5399C151.741 66.5399 148.487 69.7939 148.487 73.771C148.487 77.7481 151.741 81.0021 155.718 81.0021C159.695 81.0021 162.949 77.7481 162.949 73.771C162.949 69.7939 159.695 66.5399 155.718 66.5399ZM121.732 106.853C117.755 106.853 114.501 110.107 114.501 114.084C114.501 118.062 117.755 121.316 121.732 121.316C125.709 121.316 128.963 118.062 128.963 114.084C128.963 110.107 125.709 106.853 121.732 106.853Z" fill="url(#paint0_radial_17_45)"/>
<defs>
<radialGradient id="paint0_radial_17_45" cx="0" cy="0" r="1" gradientUnits="userSpaceOnUse" gradientTransform="translate(212.674 157.497) scale(162.363)">
<stop stop-color="#E2D8ED"/>
<stop offset="0.2073" stop-color="#DFD5ED"/>
<stop offset="0.3762" stop-color="#D7CBEB"/>
<stop offset="0.5315" stop-color="#C9BAE9"/>
<stop offset="0.6787" stop-color="#B6A2E6"/>
<stop offset="0.8202" stop-color="#9D83E2"/>
<stop offset="0.9555" stop-color="#7E5DDD"/>
<stop offset="1" stop-color="#734FDB"/>
</radialGradient>
</defs>
</svg>
