<svg width="427" height="99" viewBox="0 0 427 99" fill="none" xmlns="http://www.w3.org/2000/svg">
<path d="M17.8 43.9V34H41.3C48.5 34 52.7 29.5 52.7 22.9C52.7 16.1 48.4 11.9 41.3 11.9H10.3V60.2H0.199951V1.60001H41.3C54.8 1.60001 62.7 9.70001 62.7 22.5C62.7 35.1 54.8 43.8 41.3 43.8H17.8V43.9Z" fill="#574793"/>
<path d="M119.4 60.1L110.6 45.4H82.9999L87.7999 37.1H105.7L92.6999 15.2L66.0999 60.1H54.3999L87.9999 4.1C89.1999 2.1 90.6999 0.800003 92.9999 0.800003C95.2999 0.800003 96.6999 2.1 97.8999 4.1L131.6 60.1H119.4Z" fill="#574793"/>
<path d="M138 60.1V1.60001H148.2V49.9H187.5V60.1H138Z" fill="#574793"/>
<path d="M255.9 60.1L247.1 45.4H219.4L224.2 37.1H242.1L229.1 15.2L202.5 60.1H191L224.6 4.1C225.8 2.1 227.3 0.800003 229.6 0.800003C231.9 0.800003 233.3 2.1 234.5 4.1L268.2 60.1H255.9Z" fill="#574793"/>
<path d="M274.5 60.1V1.60001H308.4C324.9 1.60001 336.9 13.3 336.9 30.2C336.9 47.1 324.9 60.1 308.4 60.1H274.5ZM308.3 49.9C318.8 49.9 326.6 41.8 326.6 30.8C326.6 19.8 318.9 11.9 308.3 11.9H284.6V50H308.3V49.9Z" fill="#574793"/>
<path d="M345.7 60.1V1.60001H356V60.1H345.7Z" fill="#574793"/>
<path d="M376.2 17.3V60.1H366.5V7.00001C366.5 3.20001 368.5 0.900009 371.7 0.900009C373.2 0.900009 374.5 1.50001 376 3.00001L417.3 44V1.10001H427V54.7C427 58.6 424.9 60.8 421.9 60.8C420.2 60.8 418.7 60.1 417.2 58.6L376.2 17.3Z" fill="#574793"/>
<path d="M0.0999756 97.9V94.9H2.69997V81.2H0.0999756V78.2H10.1C11.3 78.2 12.3 78.4 13.2 78.8C14.1 79.2 14.8 79.8 15.3 80.5C15.8 81.2 16 82.1 16 83.1V83.4C16 84.3 15.8 85 15.5 85.6C15.2 86.2 14.8 86.6 14.3 86.9C13.8 87.2 13.4 87.4 13 87.6V88.1C13.4 88.2 13.9 88.4 14.4 88.7C14.9 89 15.3 89.5 15.7 90C16 90.6 16.2 91.4 16.2 92.3V92.6C16.2 93.7 15.9 94.6 15.4 95.4C14.9 96.2 14.2 96.8 13.3 97.2C12.4 97.6 11.4 97.8 10.2 97.8H0.0999756V97.9ZM6.09998 86.5H9.79997C10.7 86.5 11.4 86.3 11.9 85.9C12.4 85.5 12.7 84.9 12.7 84.1V83.8C12.7 83 12.4 82.4 11.9 82C11.4 81.6 10.7 81.4 9.79997 81.4H6.09998V86.5ZM6.09998 94.9H9.79997C10.7 94.9 11.4 94.7 11.9 94.2C12.4 93.8 12.7 93.1 12.7 92.3V92C12.7 91.2 12.4 90.6 11.9 90.1C11.4 89.7 10.7 89.4 9.69997 89.4H5.99997V94.9H6.09998Z" fill="#A181FA"/>
<path d="M26.3999 97.9V78.3H29.7999V94.9H38.9999V98H26.3999V97.9Z" fill="#A181FA"/>
<path d="M55.5 98.3C53.1 98.3 51.1 97.6 49.7 96.3C48.3 94.9 47.5 93 47.5 90.5V85.8C47.5 83.3 48.2 81.3 49.7 80C51.1 78.6 53.1 78 55.5 78C57.9 78 59.9 78.7 61.3 80C62.7 81.4 63.5 83.3 63.5 85.8V90.5C63.5 93 62.8 95 61.3 96.3C59.9 97.7 57.9 98.3 55.5 98.3ZM55.5 95.3C57 95.3 58.1 94.9 58.9 94C59.7 93.1 60.1 92 60.1 90.5V85.6C60.1 84.1 59.7 83 58.9 82.1C58.1 81.2 57 80.8 55.5 80.8C54.1 80.8 52.9 81.2 52.1 82.1C51.3 83 50.9 84.1 50.9 85.6V90.5C50.9 92 51.3 93.1 52.1 94C52.9 94.9 54 95.3 55.5 95.3Z" fill="#A181FA"/>
<path d="M81.1999 98.3C78.7999 98.3 76.8999 97.6 75.4999 96.3C74.0999 94.9 73.3999 93 73.3999 90.5V85.8C73.3999 83.3 74.0999 81.3 75.4999 80C76.8999 78.6 78.7999 78 81.1999 78C83.5999 78 85.3999 78.7 86.6999 80C87.9999 81.3 88.5999 83.1 88.5999 85.4V85.6H85.2999V85.3C85.2999 84.1 84.9999 83.1 84.2999 82.3C83.5999 81.5 82.5999 81.1 81.0999 81.1C79.6999 81.1 78.5999 81.5 77.7999 82.4C76.9999 83.3 76.5999 84.4 76.5999 85.9V90.7C76.5999 92.2 76.9999 93.3 77.7999 94.2C78.5999 95.1 79.6999 95.5 81.0999 95.5C82.4999 95.5 83.5999 95.1 84.2999 94.3C84.9999 93.5 85.2999 92.5 85.2999 91.3V90.8H88.5999V91.2C88.5999 93.5 87.9999 95.3 86.6999 96.6C85.4999 97.7 83.5999 98.3 81.1999 98.3Z" fill="#A181FA"/>
<path d="M98.8999 97.9V78.3H102.3V86.3H102.8L109.6 78.3H113.9L105.4 88L114.2 98H109.7L102.7 89.8H102.2V98H98.8999V97.9Z" fill="#A181FA"/>
<path d="M129.9 98.3C127.5 98.3 125.6 97.6 124.2 96.3C122.8 94.9 122.1 93 122.1 90.5V85.8C122.1 83.3 122.8 81.3 124.2 80C125.6 78.6 127.5 78 129.9 78C132.3 78 134.1 78.7 135.4 80C136.7 81.3 137.3 83.1 137.3 85.4V85.6H134V85.3C134 84.1 133.7 83.1 133 82.3C132.3 81.5 131.3 81.1 129.8 81.1C128.4 81.1 127.3 81.5 126.5 82.4C125.7 83.3 125.3 84.4 125.3 85.9V90.7C125.3 92.2 125.7 93.3 126.5 94.2C127.3 95.1 128.4 95.5 129.8 95.5C131.2 95.5 132.3 95.1 133 94.3C133.7 93.5 134 92.5 134 91.3V90.8H137.3V91.2C137.3 93.5 136.7 95.3 135.4 96.6C134.1 97.7 132.3 98.3 129.9 98.3Z" fill="#A181FA"/>
<path d="M147.5 97.9V78.3H150.9V86.5H158.6V78.3H162V97.9H158.6V89.6H150.9V97.9H147.5Z" fill="#A181FA"/>
<path d="M171.6 97.9L177 78.3H182.9L188.3 97.9H184.8L183.6 93.4H176.3L175.1 97.9H171.6ZM177 90.4H182.7L180.1 80.4H179.6L177 90.4Z" fill="#A181FA"/>
<path d="M197.7 97.9V78.3H201.1V97.9H197.7Z" fill="#A181FA"/>
<path d="M212 97.9V78.3H218.4L223 95.7H223.5V78.3H226.8V97.9H220.4L215.8 80.5H215.3V97.9H212Z" fill="#A181FA"/>
<path d="M258.6 98.3C257.1 98.3 255.8 98 254.6 97.5C253.5 97 252.6 96.2 251.9 95.2C251.2 94.2 250.9 93 250.9 91.5V90.8H254.2V91.5C254.2 92.8 254.6 93.8 255.4 94.4C256.2 95 257.2 95.4 258.5 95.4C259.8 95.4 260.8 95.1 261.5 94.6C262.2 94.1 262.5 93.4 262.5 92.5C262.5 91.9 262.3 91.4 262 91.1C261.7 90.7 261.2 90.4 260.6 90.2C260 90 259.3 89.8 258.4 89.6L257.6 89.4C256.3 89.1 255.2 88.7 254.3 88.3C253.4 87.8 252.6 87.2 252.1 86.5C251.6 85.8 251.3 84.8 251.3 83.6C251.3 82.4 251.6 81.4 252.1 80.6C252.7 79.8 253.5 79.1 254.5 78.7C255.5 78.3 256.7 78 258.1 78C259.5 78 260.7 78.2 261.8 78.7C262.9 79.2 263.7 79.9 264.4 80.8C265 81.7 265.3 82.9 265.3 84.3V85.2H262V84.3C262 83.5 261.8 82.9 261.5 82.4C261.2 81.9 260.7 81.6 260.2 81.3C259.6 81.1 258.9 81 258.2 81C257 81 256.2 81.2 255.6 81.7C255 82.1 254.7 82.8 254.7 83.6C254.7 84.1 254.8 84.6 255.1 84.9C255.4 85.2 255.8 85.6 256.3 85.8C256.8 86 257.5 86.2 258.3 86.4L259.1 86.6C260.4 86.9 261.6 87.3 262.6 87.7C263.6 88.1 264.4 88.8 265 89.5C265.6 90.2 265.9 91.2 265.9 92.4C265.9 93.6 265.6 94.6 265 95.5C264.4 96.4 263.5 97.1 262.4 97.6C261.4 98.1 260.1 98.3 258.6 98.3Z" fill="#A181FA"/>
<path d="M275.9 97.9V78.3H288.4V81.4H279.3V86.6H287.6V89.7H279.3V95H288.6V98.1H275.9V97.9Z" fill="#A181FA"/>
<path d="M305.9 98.3C303.5 98.3 301.6 97.6 300.2 96.3C298.8 94.9 298.1 93 298.1 90.5V85.8C298.1 83.3 298.8 81.3 300.2 80C301.6 78.6 303.5 78 305.9 78C308.3 78 310.1 78.7 311.4 80C312.7 81.3 313.3 83.1 313.3 85.4V85.6H310V85.3C310 84.1 309.7 83.1 309 82.3C308.3 81.5 307.3 81.1 305.8 81.1C304.4 81.1 303.3 81.5 302.5 82.4C301.7 83.3 301.3 84.4 301.3 85.9V90.7C301.3 92.2 301.7 93.3 302.5 94.2C303.3 95.1 304.4 95.5 305.8 95.5C307.2 95.5 308.3 95.1 309 94.3C309.7 93.5 310 92.5 310 91.3V90.8H313.3V91.2C313.3 93.5 312.7 95.3 311.4 96.6C310.1 97.7 308.3 98.3 305.9 98.3Z" fill="#A181FA"/>
<path d="M331 98.3C329.4 98.3 328.1 98 327 97.4C325.9 96.8 325 96 324.4 94.9C323.8 93.8 323.5 92.5 323.5 91V78.2H326.9V91.1C326.9 92.4 327.3 93.4 328 94.1C328.7 94.8 329.8 95.2 331.1 95.2C332.5 95.2 333.5 94.8 334.2 94.1C334.9 93.4 335.3 92.4 335.3 91.1V78.2H338.7V91C338.7 92.5 338.4 93.8 337.8 94.9C337.2 96 336.3 96.8 335.2 97.4C333.9 98 332.5 98.3 331 98.3Z" fill="#A181FA"/>
<path d="M349.3 97.9V78.3H357.7C358.9 78.3 360 78.5 360.9 78.9C361.8 79.3 362.5 79.9 363 80.7C363.5 81.5 363.8 82.4 363.8 83.5V83.8C363.8 85 363.5 86 362.9 86.7C362.3 87.4 361.6 88 360.8 88.3V88.7C361.5 88.7 362.1 89 362.5 89.5C362.9 90 363.1 90.6 363.1 91.4V97.9H359.7V91.9C359.7 91.4 359.6 91.1 359.3 90.8C359 90.5 358.6 90.4 358.1 90.4H352.5V98H349.3V97.9ZM352.7 87.3H357.4C358.4 87.3 359.1 87 359.7 86.5C360.3 86 360.5 85.3 360.5 84.4V84.1C360.5 83.2 360.2 82.5 359.7 82C359.2 81.5 358.4 81.2 357.4 81.2H352.7V87.3Z" fill="#A181FA"/>
<path d="M374.1 97.9V78.3H377.5V97.9H374.1Z" fill="#A181FA"/>
<path d="M393 97.9V81.3H387.1V78.2H402.2V81.3H396.3V97.9H393Z" fill="#A181FA"/>
<path d="M416.9 97.9V91L410.1 78.3H413.9L418.3 87H418.8L423.2 78.3H427L420.2 91V97.9H416.9Z" fill="#A181FA"/>
</svg>
